<?xml version="1.0" encoding="UTF-8"?> <svg xmlns="http://www.w3.org/2000/svg" width="80" height="80" viewBox="0 0 80 80" fill="none"><path d="M73.617 2.12766H6.38298C2.86332 2.12766 0 4.99115 0 8.51064V59.5745C0 63.094 2.86332 65.9575 6.38298 65.9575H31.0638V75.3191H22.1277C21.4226 75.3191 20.8511 75.8907 20.8511 76.5957C20.8511 77.3008 21.4226 77.8723 22.1277 77.8723H57.8723C58.5774 77.8723 59.1489 77.3008 59.1489 76.5957C59.1489 75.8907 58.5774 75.3191 57.8723 75.3191H48.9362V65.9575H73.617C77.1367 65.9575 80 63.094 80 59.5745V8.51064C80 4.99115 77.1367 2.12766 73.617 2.12766ZM46.383 75.3191H33.617V65.9575H46.383V75.3191ZM77.4468 59.5745C77.4468 61.6861 75.7289 63.4043 73.617 63.4043H6.38298C4.27115 63.4043 2.55319 61.6861 2.55319 59.5745V55.7447H77.4468V59.5745ZM77.4468 53.1915H2.55319V8.51064C2.55319 6.39898 4.27115 4.68085 6.38298 4.68085H73.617C75.7289 4.68085 77.4468 6.39898 77.4468 8.51064V53.1915Z" fill="#555555"></path><path d="M73.6161 7.23404H6.38206C5.67704 7.23404 5.10547 7.80561 5.10547 8.51064V49.3617C5.10547 50.0667 5.67704 50.6383 6.38206 50.6383H61.7012C62.4062 50.6383 62.9778 50.0667 62.9778 49.3617C62.9778 48.6567 62.4062 48.0851 61.7012 48.0851H7.65866V9.78723H72.3395V48.0851H66.8076C66.1026 48.0851 65.531 48.6567 65.531 49.3617C65.531 50.0667 66.1026 50.6383 66.8076 50.6383H73.6161C74.3211 50.6383 74.8927 50.0667 74.8927 49.3617V8.51064C74.8927 7.80561 74.3211 7.23404 73.6161 7.23404Z" fill="#555555"></path><path fill-rule="evenodd" clip-rule="evenodd" d="M55.6109 46.5823H64.8936C65.4063 46.5823 65.8219 46.0507 65.8219 45.395V13.3391C65.8219 12.6834 65.4063 12.1519 64.8936 12.1519H55.6109C55.0983 12.1519 54.6827 12.6834 54.6827 13.3391V45.3949C54.6827 46.0507 55.0983 46.5823 55.6109 46.5823ZM49.2585 45.5962H40.1717C39.6699 45.5962 39.263 45.1894 39.263 44.6875V20.153C39.263 19.6512 39.6699 19.2443 40.1717 19.2443H49.2585C49.7604 19.2443 50.1672 19.6512 50.1672 20.153V44.6876C50.1672 45.1894 49.7604 45.5962 49.2585 45.5962ZM14.4165 45.5962H21.686C22.1879 45.5962 22.5946 45.1894 22.5946 44.6875V31.0572C22.5946 30.5554 22.1878 30.1486 21.686 30.1486H14.4165C13.9147 30.1486 13.5078 30.5554 13.5078 31.0572V44.6875C13.5078 45.1894 13.9147 45.5962 14.4165 45.5962ZM34.6164 22.879H29.1642C28.6624 22.879 28.2556 23.2859 28.2556 23.7877V44.6874C28.2556 45.1893 28.6624 45.5961 29.1642 45.5961H34.6164V22.879Z" fill="url(#paint0_radial)"></path><path d="M35.8038 27.364L35.8039 23.7876C35.8039 22.8178 35.015 22.0288 34.0451 22.0288H28.5929C27.6231 22.0288 26.8341 22.8178 26.8341 23.7876V25.6636C26.8341 27.0999 28.5345 27.0999 28.5345 25.6636V23.7876C28.5345 23.7554 28.5606 23.7292 28.5929 23.7292H34.0451C34.0774 23.7292 34.1036 23.7553 34.1036 23.7876L34.1035 27.364V44.6874C34.1035 44.7197 34.0773 44.7459 34.045 44.7459H28.5928C28.5605 44.7459 28.5343 44.7197 28.5343 44.6874V30.1489C28.5343 29.6794 28.1537 29.2987 27.6842 29.2987C27.2146 29.2987 26.834 29.6794 26.834 30.1489V44.6875C26.834 45.6574 27.6229 46.4464 28.5928 46.4464H34.045C35.0149 46.4464 35.8038 45.6574 35.8038 44.6875L35.8038 27.364Z" fill="#555555"></path><path fill-rule="evenodd" clip-rule="evenodd" d="M51.6425 27.364L51.6426 20.153C51.6426 19.1831 50.8537 18.3941 49.8838 18.3941H40.797C39.8271 18.3941 39.0381 19.1831 39.0381 20.153L39.038 27.364V44.6874C39.038 45.6573 39.827 46.4463 40.7968 46.4463H49.8837C50.8536 46.4463 51.6425 45.6573 51.6425 44.6874V27.364ZM40.7385 20.153C40.7385 20.1208 40.7646 20.0945 40.797 20.0945H49.8838C49.9161 20.0945 49.9423 20.1208 49.9423 20.153V27.364V44.6874C49.9423 44.7197 49.9161 44.7459 49.8838 44.7459H40.797C40.7646 44.7459 40.7385 44.7197 40.7385 44.6874V27.364V20.153Z" fill="#555555"></path><path d="M66.6904 41.3609L66.6905 44.9372C66.6905 45.9071 65.9016 46.696 64.9317 46.696H55.4289C54.459 46.696 53.67 45.9071 53.67 44.9372V43.0612C53.67 41.6249 55.3704 41.6249 55.3704 43.0612V44.9372C55.3704 44.9694 55.3966 44.9957 55.4289 44.9957H64.9317C64.964 44.9957 64.9902 44.9695 64.9902 44.9372L64.99 41.3609V12.8981C64.99 12.8658 64.9639 12.8396 64.9316 12.8396H55.4288C55.3965 12.8396 55.3703 12.8658 55.3703 12.8981V38.5759C55.3703 39.0454 54.9896 39.4261 54.5201 39.4261C54.0506 39.4261 53.6699 39.0454 53.6699 38.5759V12.898C53.6699 11.9281 54.4589 11.1392 55.4288 11.1392H64.9316C65.9014 11.1392 66.6904 11.9281 66.6904 12.898L66.6904 41.3609Z" fill="#555555"></path><path d="M14.9229 46.4464H22.1924C23.1623 46.4464 23.9513 45.6574 23.9513 44.6875V42.8701C23.9513 42.4005 23.5706 42.0199 23.1011 42.0199C22.6316 42.0199 22.2509 42.4005 22.2509 42.8701V44.6875C22.2509 44.7198 22.2247 44.746 22.1924 44.746H14.9229C14.8906 44.746 14.8644 44.7198 14.8644 44.6875V31.0571C14.8644 31.0249 14.8906 30.9986 14.9229 30.9986H22.1924C22.2247 30.9986 22.2509 31.0248 22.2509 31.0571V39.2351C22.2509 39.7048 22.6316 40.0853 23.1011 40.0853C23.5706 40.0853 23.9513 39.7048 23.9513 39.2351V31.0571C23.9513 30.0872 23.1623 29.2982 22.1924 29.2982H14.9229C13.953 29.2982 13.1641 30.0872 13.1641 31.0571V44.6874C13.1639 45.6573 13.953 46.4464 14.9229 46.4464Z" fill="#555555"></path><defs><radialGradient id="paint0_radial" cx="0" cy="0" r="1" gradientUnits="userSpaceOnUse" gradientTransform="translate(13.5078 46.5822) rotate(-33.3508) scale(62.6276 57.5208)"><stop stop-color="#FBBE3A"></stop><stop offset="0.350699" stop-color="#FB38FA"></stop><stop offset="0.663889" stop-color="#6D41FF"></stop><stop offset="1" stop-color="#18EEEC"></stop></radialGradient></defs></svg> 