<?xml version="1.0" encoding="UTF-8"?> <svg xmlns="http://www.w3.org/2000/svg" width="80" height="63" viewBox="0 0 80 63" fill="none"><path fill-rule="evenodd" clip-rule="evenodd" d="M60.0387 37.495H72.5639C73.2556 37.495 73.8164 36.9342 73.8164 36.2425V2.42437C73.8164 1.73266 73.2556 1.17188 72.5639 1.17188H60.0387C59.347 1.17188 58.7863 1.73266 58.7863 2.42437V36.2423C58.7863 36.9342 59.347 37.495 60.0387 37.495ZM38.7453 37.495H28.7252C28.0334 37.495 27.4727 36.9342 27.4727 36.2425V17.4546C27.4727 16.7629 28.0334 16.2021 28.7252 16.2021H38.7453C39.437 16.2021 39.9978 16.7629 39.9978 17.4546V36.2425C39.9978 36.9342 39.4372 37.495 38.7453 37.495ZM53.7734 6.18164H46.2583C45.5666 6.18164 45.0058 6.74258 45.0058 7.43414V36.2421C45.0058 36.9338 45.5666 37.4946 46.2583 37.4946H53.7734V6.18164Z" fill="url(#paint0_radial)"></path><path d="M18.7028 61.2928C20.778 61.2928 22.4603 59.6105 22.4603 57.5353C22.4603 55.4601 20.778 53.7778 18.7028 53.7778C16.6276 53.7778 14.9453 55.4601 14.9453 57.5353C14.9453 59.6105 16.6276 61.2928 18.7028 61.2928Z" fill="white"></path><path d="M75.0661 61.2928C77.1413 61.2928 78.8236 59.6105 78.8236 57.5353C78.8236 55.4601 77.1413 53.7778 75.0661 53.7778C72.9909 53.7778 71.3086 55.4601 71.3086 57.5353C71.3086 59.6105 72.9909 61.2928 75.0661 61.2928Z" fill="white"></path><path d="M73.8181 43.677C77.2269 43.677 80 40.9037 80 37.495V11.192C80 10.5447 79.4753 10.0202 78.8281 10.0202H74.4545V2.42437C74.4545 1.0875 73.367 0 72.0302 0H59.505C58.1681 0 57.0806 1.0875 57.0806 2.42437V10.0202H55.4144V7.43437C55.4144 6.0975 54.3269 5.01 52.99 5.01H45.4748C44.138 5.01 43.0505 6.0975 43.0505 7.43437V10.0202H12.1812L10.9747 6.61953C10.1012 4.15859 7.76 2.505 5.14859 2.505H1.17188C0.524687 2.505 0 3.02953 0 3.67687C0 4.32406 0.524687 4.84875 1.17188 4.84875H5.14859C6.76984 4.84875 8.22359 5.87531 8.76578 7.40344L20.1769 39.5622C20.8717 41.5202 22.4959 42.9659 24.4458 43.4756L19.9237 52.758C19.5344 52.6587 19.1269 52.6056 18.707 52.6056C15.9889 52.6056 13.7777 54.817 13.7777 57.5352C13.7777 60.2533 15.9889 62.4645 18.707 62.4645C21.0214 62.4645 22.9672 60.8609 23.4947 58.707H70.283C70.8103 60.8611 72.7562 62.4645 75.0705 62.4645C77.7886 62.4645 79.9998 60.2531 79.9998 57.5352C79.9998 54.817 77.7886 52.6056 75.0705 52.6056C72.7561 52.6056 70.8103 54.2092 70.283 56.3633H23.4947C23.2547 55.383 22.7211 54.5169 21.9922 53.8639L26.9548 43.6769L73.8181 43.677ZM18.7072 60.1209C17.2814 60.1209 16.1216 58.9611 16.1216 57.5353C16.1216 56.1095 17.2814 54.9495 18.7072 54.9495C20.133 54.9495 21.293 56.1095 21.293 57.5353C21.293 58.9611 20.133 60.1209 18.7072 60.1209ZM75.0706 54.9495C76.4964 54.9495 77.6562 56.1095 77.6562 57.5353C77.6562 58.9611 76.4964 60.1209 75.0706 60.1209C73.6448 60.1209 72.485 58.9611 72.485 57.5353C72.485 56.1095 73.6448 54.9495 75.0706 54.9495ZM59.4244 2.42437C59.4244 2.38 59.4605 2.34375 59.505 2.34375H72.0302C72.0747 2.34375 72.1108 2.38 72.1108 2.42437V10.0202H59.4244V2.42437ZM59.4244 12.3639H72.1108V36.2423C72.1108 36.2869 72.0747 36.323 72.0302 36.323H59.505C59.4605 36.323 59.4244 36.2869 59.4244 36.2423V12.3639ZM45.3942 7.43437C45.3942 7.39 45.4303 7.35375 45.4748 7.35375H52.99C53.0345 7.35375 53.0706 7.38984 53.0706 7.43437V10.0202H45.3942V7.43437ZM22.3859 38.7784L13.013 12.3639H53.0705V36.2423C53.0705 36.2869 53.0344 36.323 52.9898 36.323H45.4747C45.4302 36.323 45.3941 36.2869 45.3941 36.2423V16.2027C45.3941 15.5555 44.8694 15.0308 44.2222 15.0308C43.575 15.0308 43.0503 15.5555 43.0503 16.2027V36.2425C43.0503 37.5794 44.1378 38.6669 45.4747 38.6669H52.9898C54.3267 38.6669 55.4142 37.5794 55.4142 36.2425V12.3639H57.0805V36.2423C57.0805 37.5792 58.168 38.6667 59.5048 38.6667H72.03C73.3669 38.6667 74.4544 37.5792 74.4544 36.2423V12.3639H77.6562V37.4948C77.6562 39.6112 75.9344 41.3331 73.8181 41.3331H26.0031C24.3817 41.3333 22.928 40.3066 22.3859 38.7784Z" fill="#555555"></path><path d="M29.4244 38.667H39.4445C40.7814 38.667 41.8689 37.5795 41.8689 36.2426V33.7375C41.8689 33.0903 41.3442 32.5656 40.697 32.5656C40.0498 32.5656 39.5252 33.0903 39.5252 33.7375V36.2426C39.5252 36.2871 39.4891 36.3232 39.4445 36.3232H29.4244C29.3798 36.3232 29.3438 36.2871 29.3438 36.2426V17.4546C29.3438 17.4103 29.3798 17.374 29.4244 17.374H39.4445C39.4891 17.374 39.5252 17.4101 39.5252 17.4546V28.7271C39.5252 29.3745 40.0498 29.899 40.697 29.899C41.3442 29.899 41.8689 29.3745 41.8689 28.7271V17.4546C41.8689 16.1178 40.7814 15.0303 39.4445 15.0303H29.4244C28.0875 15.0303 27 16.1178 27 17.4546V36.2425C26.9998 37.5793 28.0875 38.667 29.4244 38.667Z" fill="#555555"></path><defs><radialGradient id="paint0_radial" cx="0" cy="0" r="1" gradientUnits="userSpaceOnUse" gradientTransform="translate(27.4727 37.495) rotate(-38.0885) scale(58.8822 57.1769)"><stop stop-color="#FBBE3A"></stop><stop offset="0.350699" stop-color="#FB38FA"></stop><stop offset="0.663889" stop-color="#6D41FF"></stop><stop offset="1" stop-color="#18EEEC"></stop></radialGradient></defs></svg> 