<?xml version="1.0" encoding="UTF-8"?> <svg xmlns="http://www.w3.org/2000/svg" width="80" height="80" viewBox="0 0 80 80" fill="none"><path fill-rule="evenodd" clip-rule="evenodd" d="M52.6399 49.1214C52.646 49.1215 52.652 49.1215 52.6577 49.1214L52.666 49.1214H52.6399Z" fill="url(#paint0_radial)"></path><path d="M62.0155 23.7789C62.0155 28.8694 59.2821 33.623 54.8821 36.185L50.2834 38.8627C49.8027 39.1425 49.5071 39.6567 49.5071 40.213V46.0016L43.031 46.0123H43.0296C42.9554 46.0123 42.8884 46.0016 42.8287 45.9844V40.2131C42.8287 39.6569 42.533 39.1427 42.0524 38.8628L37.4537 36.1852C33.0535 33.6231 30.3201 28.8694 30.3201 23.7791V4.72501H62.0154L62.0155 23.7789Z" fill="url(#paint1_radial)"></path><path fill-rule="evenodd" clip-rule="evenodd" d="M70.9002 3.97813H65.1405V3.16251C65.1405 2.29954 64.441 1.60001 63.578 1.60001H28.7577C27.8948 1.60001 27.1952 2.29954 27.1952 3.16251V3.97813H21.4355C20.5726 3.97813 19.873 4.67766 19.873 5.54063V16.2142C19.873 20.5047 23.0756 24.0611 27.2157 24.6186C27.4571 29.592 29.832 34.2311 33.6557 37.3452C33.6557 37.3452 34.7661 38.277 36.4215 39.8953C38.0769 41.5136 39.1826 41.1627 39.1826 44.7373C39.1826 48.312 39.1826 45.2908 39.1826 45.2908C39.1826 46.3194 39.5835 47.2861 40.3116 48.0128C41.0382 48.7381 42.0032 49.1373 43.0296 49.1373H43.0365L52.5962 49.1214L52.7938 46.0023C52.7438 45.9981 52.6948 45.9964 52.6457 45.9967H52.6323V41.1116L56.4548 38.8858C61.5698 35.9075 64.8349 30.4966 65.1202 24.6188C69.2602 24.0609 72.4627 20.5045 72.4627 16.2142V5.54063C72.4627 4.67766 71.7632 3.97813 70.9002 3.97813ZM22.998 16.2142C22.998 18.7695 24.7973 20.9127 27.1952 21.4434V7.10313H22.998V16.2142ZM54.8821 36.185C59.2821 33.623 62.0155 28.8694 62.0155 23.7789L62.0154 4.72501H30.3201V23.7791C30.3201 28.8694 33.0535 33.6231 37.4537 36.1852L42.0524 38.8628C42.533 39.1427 42.8287 39.6569 42.8287 40.2131V45.9844C42.8884 46.0016 42.9554 46.0123 43.0296 46.0123H43.031L49.5071 46.0016V40.213C49.5071 39.6567 49.8027 39.1425 50.2834 38.8627L54.8821 36.185ZM65.1405 21.4434C67.5385 20.9127 69.3377 18.7695 69.3377 16.2142V7.10313H65.1405V21.4434Z" fill="#555555"></path><path fill-rule="evenodd" clip-rule="evenodd" d="M52.6399 49.1214C52.646 49.1215 52.652 49.1215 52.6577 49.1214L52.666 49.1214H52.6399Z" fill="#555555"></path><path d="M46.1341 24.5558C46.3373 24.5558 46.5406 24.5955 46.732 24.6747L49.3319 25.7516L49.1106 22.9493C49.0781 22.5358 49.2111 22.1261 49.4808 21.8108L51.3072 19.6747L48.5723 19.0191C48.1692 18.9224 47.8209 18.6696 47.6044 18.3161L46.1342 15.9177L44.6642 18.3161C44.4476 18.6696 44.0994 18.9224 43.6962 19.0191L40.9614 19.6747L42.7878 21.8108C43.0573 22.1261 43.1905 22.5357 43.1578 22.9493L42.9367 25.7516L45.5364 24.6749C45.7276 24.5955 45.9309 24.5558 46.1341 24.5558Z" fill="white"></path><path d="M42.3541 29.1607C41.8131 29.1607 41.2791 28.9908 40.823 28.6593C40.0822 28.1208 39.6831 27.2544 39.7553 26.3416L39.9916 23.3491L38.0405 21.0671C37.4451 20.3707 37.2587 19.4349 37.5419 18.5636C37.825 17.6924 38.5258 17.0449 39.4167 16.8314L42.3384 16.1311L43.908 13.5704C44.3864 12.7897 45.2186 12.3236 46.1344 12.3236C47.05 12.3235 47.8825 12.7896 48.3609 13.5704L49.9306 16.1311L52.8523 16.8314C53.7431 17.045 54.4441 17.6925 54.7272 18.5638C55.0101 19.435 54.8237 20.3708 54.2284 21.0671L52.2773 23.3491L52.5136 26.3418C52.5856 27.2544 52.1866 28.1208 51.4458 28.6593C50.7048 29.1979 49.7573 29.3099 48.9111 28.9596L46.1345 27.8096L43.3581 28.9596C43.0322 29.0943 42.6919 29.1607 42.3541 29.1607ZM46.1341 24.5558C46.3373 24.5558 46.5406 24.5955 46.732 24.6747L49.3319 25.7516L49.1106 22.9493C49.0781 22.5358 49.2111 22.1261 49.4808 21.8108L51.3072 19.6747L48.5723 19.0191C48.1692 18.9224 47.8209 18.6696 47.6044 18.3161L46.1342 15.9177L44.6642 18.3161C44.4476 18.6696 44.0994 18.9224 43.6962 19.0191L40.9614 19.6747L42.7878 21.8108C43.0573 22.1261 43.1905 22.5357 43.1578 22.9493L42.9367 25.7516L45.5364 24.6749C45.7276 24.5955 45.9309 24.5558 46.1341 24.5558Z" fill="#555555"></path><path fill-rule="evenodd" clip-rule="evenodd" d="M66.8483 51.3572C66.8483 48.6505 64.5215 46.4484 61.6615 46.4484H51.9812H49.1707H44.8041C44.0881 46.4484 43.5074 46.9979 43.5074 47.6756C43.5074 48.3533 44.0881 48.9028 44.8041 48.9028H61.6615C63.0915 48.9028 64.2549 50.0038 64.2549 51.3572C64.2549 52.7128 63.0938 53.8116 61.6615 53.8116H55.1779C54.4618 53.8116 53.8811 54.3612 53.8811 55.0388C53.8811 55.7165 54.4618 56.266 55.1779 56.266H59.068C60.498 56.266 61.6615 57.3671 61.6615 58.7204C61.6615 60.076 60.5004 61.1749 59.068 61.1749H52.5844C51.8684 61.1749 51.2877 61.7244 51.2877 62.4021C51.2877 63.0797 51.8684 63.6293 52.5844 63.6293H56.4746C57.8876 63.6293 59.068 64.6975 59.068 66.0837C59.068 67.4392 57.9069 68.5381 56.4746 68.5381H49.991C49.2749 68.5381 48.6943 69.0876 48.6943 69.7653C48.6943 70.443 49.2749 70.9925 49.991 70.9925H53.8811C55.3112 70.9925 56.4746 72.0935 56.4746 73.4469C56.4746 74.8003 55.3112 75.9013 53.8811 75.9013H39.9362C34.2038 75.9013 31.9649 75.348 27.5046 74.2456C26.8511 74.0841 26.1344 73.907 25.3533 73.7185V51.1148C31.4097 50.13 37.3747 48.1803 39.4799 46.075V42.5663C35.6203 46.075 31.0589 47.4785 25.0286 48.6597C24.4277 47.3596 23.056 46.4484 21.4631 46.4484H8.49594C7.77989 46.4484 7.19922 46.9979 7.19922 47.6756V77.1285C7.19922 77.8062 7.77989 78.3557 8.49594 78.3557H21.4631C23.0454 78.3557 24.4092 77.4566 25.0163 76.1702C25.6744 76.33 26.2853 76.4809 26.8492 76.6203C31.3767 77.7394 33.8707 78.3557 39.9362 78.3557H53.8811C56.7412 78.3557 59.068 76.1536 59.068 73.4469C59.068 72.4377 58.7442 71.4988 58.1902 70.7179C60.1933 70.0548 61.6615 68.2434 61.6615 66.0837C61.6615 65.0781 61.3456 64.1362 60.7932 63.3517C62.7875 62.6875 64.2549 60.8803 64.2549 58.7204C64.2549 57.7112 63.9311 56.7724 63.377 55.9914C65.3802 55.3283 66.8483 53.517 66.8483 51.3572ZM21.4631 75.9013C22.1782 75.9013 22.7599 75.3508 22.7599 74.6741V50.13C22.7599 49.4533 22.1782 48.9028 21.4631 48.9028H9.79266V75.9013H21.4631Z" fill="#555555"></path><defs><radialGradient id="paint0_radial" cx="0" cy="0" r="1" gradientUnits="userSpaceOnUse" gradientTransform="translate(19.873 49.1373) rotate(-42.1113) scale(70.8906 70.5305)"><stop stop-color="#FBBE3A"></stop><stop offset="0.350699" stop-color="#FB38FA"></stop><stop offset="0.663889" stop-color="#6D41FF"></stop><stop offset="1" stop-color="#18EEEC"></stop></radialGradient><radialGradient id="paint1_radial" cx="0" cy="0" r="1" gradientUnits="userSpaceOnUse" gradientTransform="translate(19.873 49.1373) rotate(-42.1113) scale(70.8906 70.5305)"><stop stop-color="#FBBE3A"></stop><stop offset="0.350699" stop-color="#FB38FA"></stop><stop offset="0.663889" stop-color="#6D41FF"></stop><stop offset="1" stop-color="#18EEEC"></stop></radialGradient></defs></svg> 