<?xml version="1.0" encoding="UTF-8"?> <svg xmlns="http://www.w3.org/2000/svg" width="80" height="76" viewBox="0 0 80 76" fill="none"><g clip-path="url(#clip0)"><path d="M78.4375 72.3067H75.2658V68.228C75.2658 63.7203 72.3628 59.8781 68.3283 58.4725C70.7634 56.4453 72.3161 53.3922 72.3161 49.9833C72.3161 43.8942 67.3622 38.9403 61.2731 38.9403C58.255 38.9403 55.5158 40.1573 53.5205 42.1266C52.805 35.2984 47.0144 29.9586 40 29.9586C32.9856 29.9586 27.195 35.2984 26.4795 42.1266C24.4842 40.1573 21.745 38.9403 18.7269 38.9403C12.6378 38.9403 7.68391 43.8942 7.68391 49.9833C7.68391 53.3922 9.23656 56.4452 11.6717 58.4725C7.63719 59.8781 4.73406 63.7205 4.73406 68.228V72.3067H1.5625C0.699531 72.3067 0 73.0062 0 73.8692C0 74.7322 0.699531 75.4317 1.5625 75.4317H32.9364C33.7994 75.4317 34.4989 74.7322 34.4989 73.8692C34.4989 73.0062 33.7994 72.3067 32.9364 72.3067H25.7862V66.7094C25.7862 61.4373 30.0753 57.1484 35.3472 57.1484H44.6527C49.9245 57.1484 54.2136 61.4375 54.2136 66.7094V72.3067H47.0633C46.2005 72.3067 45.5008 73.0062 45.5008 73.8692C45.5008 74.7322 46.2005 75.4317 47.0633 75.4317H78.4375C79.3003 75.4317 80 74.7322 80 73.8692C80 73.0062 79.3003 72.3067 78.4375 72.3067ZM61.2731 42.0653C65.6391 42.0653 69.1911 45.6172 69.1911 49.9833C69.1911 54.3494 65.6392 57.9012 61.2731 57.9012C56.907 57.9012 53.3552 54.3494 53.3552 49.9833C53.3552 45.6172 56.9072 42.0653 61.2731 42.0653ZM40 33.0836C45.7731 33.0836 50.47 37.7805 50.47 43.5534C50.47 49.3264 45.7731 54.0234 40 54.0234C34.2269 54.0234 29.5302 49.3266 29.5302 43.5536C29.5302 37.7806 34.2269 33.0836 40 33.0836ZM10.8089 49.9833C10.8089 45.6173 14.3608 42.0653 18.7269 42.0653C23.093 42.0653 26.6448 45.6172 26.6448 49.9833C26.6448 54.3494 23.093 57.9012 18.7269 57.9012C14.3608 57.9012 10.8089 54.3492 10.8089 49.9833ZM7.85906 68.228C7.85906 64.2569 11.0898 61.0262 15.0609 61.0262H22.3927C22.9394 61.0262 23.4178 61.0833 23.9122 61.2183C23.1106 62.8808 22.6611 64.7436 22.6611 66.7095V72.3069H7.85906V68.228ZM27.363 56.858C28.4228 55.5294 29.183 53.9517 29.5403 52.2284C30.2434 53.0748 31.0472 53.8348 31.933 54.49C30.2414 54.9633 28.6914 55.7792 27.363 56.858ZM48.067 54.49C48.9528 53.8348 49.7566 53.0748 50.4597 52.2284C50.817 53.9517 51.5773 55.5294 52.637 56.858C51.3086 55.7794 49.7588 54.9633 48.067 54.49ZM57.3387 72.3067V66.7094C57.3387 64.7436 56.8892 62.8806 56.0877 61.2183C56.582 61.0833 57.0605 61.0262 57.6072 61.0262H64.9391C68.9102 61.0262 72.1408 64.2569 72.1408 68.228V72.3067H57.3387Z" fill="#555555"></path><path d="M40.8381 72.5703C40.2981 72.21 39.5722 72.2272 39.0478 72.6088C38.5231 72.9905 38.2897 73.6833 38.4709 74.3053C38.6508 74.9223 39.2069 75.375 39.8475 75.4261C40.5064 75.4788 41.1412 75.0955 41.4037 74.4892C41.6983 73.8097 41.4616 72.9784 40.8381 72.5703Z" fill="#555555"></path><path fill-rule="evenodd" clip-rule="evenodd" d="M32.7659 22.8344C33.2374 23.1771 33.7887 23.3525 34.3465 23.3525C34.7026 23.3525 35.0613 23.2811 35.404 23.136L40.0007 21.1885L44.5974 23.1356C45.4763 23.5081 46.4627 23.3953 47.2354 22.8342C48.0081 22.273 48.4199 21.3699 48.3374 20.4186L47.9057 15.445L51.1781 11.6752C51.8041 10.9542 52.0018 9.98142 51.7068 9.0733C51.4118 8.16502 50.6802 7.49408 49.7498 7.27861L44.8863 6.15236L42.3121 1.87502C41.8198 1.05689 40.9556 0.568298 40.0007 0.568298C39.046 0.568298 38.1818 1.05689 37.6895 1.87502L35.1149 6.15252L30.2513 7.27877C29.321 7.49424 28.5895 8.16517 28.2945 9.0733C27.9995 9.98158 28.197 10.9542 28.8229 11.6752L32.0955 15.4452L31.664 20.4188C31.5813 21.37 31.9934 22.2731 32.7659 22.8344ZM22.5 31.3024C22.1727 31.3024 21.8427 31.2367 21.5278 31.1033L17.9264 29.5775L14.325 31.1033C13.5164 31.446 12.6095 31.3422 11.8992 30.8261C11.1889 30.3099 10.8102 29.4795 10.8861 28.6047L11.2242 24.7081L8.66016 21.7545C8.08453 21.0913 7.90297 20.1967 8.17438 19.3617C8.44578 18.5267 9.11844 17.9099 9.97406 17.7119L13.7842 16.8294L15.8011 13.4781C16.2539 12.7258 17.0484 12.2767 17.9266 12.2767C18.8045 12.2767 19.5992 12.726 20.0519 13.4781L22.0688 16.8294L25.8792 17.7119C26.7345 17.91 27.4073 18.5267 27.6788 19.3619C27.9502 20.197 27.7684 21.0914 27.1928 21.7545L24.6289 24.7081L24.967 28.6047C25.043 29.4795 24.6642 30.31 23.9537 30.8261C23.5198 31.141 23.0131 31.3024 22.5 31.3024ZM66.6484 31.3023C66.3211 31.3023 65.9912 31.2367 65.6762 31.1033L62.0747 29.5775L58.4734 31.1033C57.6647 31.4456 56.7579 31.3423 56.0476 30.8261C55.3372 30.31 54.9584 29.4797 55.0344 28.6048L55.3725 24.7083L52.8086 21.7547C52.2328 21.0912 52.0514 20.1967 52.3229 19.3617C52.5944 18.5267 53.2672 17.91 54.1226 17.712L57.9328 16.8295L59.9495 13.4783C60.4022 12.7259 61.1967 12.2769 62.075 12.2769C62.9533 12.2769 63.7476 12.7261 64.2004 13.4784L66.2173 16.8295L70.0276 17.712C70.8831 17.9101 71.5558 18.5269 71.8272 19.362C72.0986 20.1972 71.9169 21.0915 71.3414 21.7547L68.7775 24.7083L69.1156 28.6048C69.1914 29.4797 68.8128 30.3101 68.1023 30.8262C67.6683 31.1409 67.1614 31.3023 66.6484 31.3023Z" fill="url(#paint0_radial)"></path><path d="M22.498 31.3024C22.1707 31.3024 21.8407 31.2367 21.5259 31.1033L17.9245 29.5775L14.323 31.1033C13.5145 31.446 12.6076 31.3422 11.8973 30.8261C11.187 30.3099 10.8082 29.4795 10.8841 28.6047L11.2223 24.7081L8.65821 21.7545C8.08258 21.0913 7.90102 20.1967 8.17242 19.3617C8.44383 18.5267 9.11649 17.9099 9.97211 17.7119L13.7823 16.8294L15.7991 13.4781C16.252 12.7258 17.0465 12.2767 17.9246 12.2767C18.8026 12.2767 19.5973 12.726 20.0499 13.4781L22.0668 16.8294L25.8773 17.7119C26.7326 17.91 27.4054 18.5267 27.6768 19.3619C27.9482 20.197 27.7665 21.0914 27.1909 21.7545L24.627 24.7081L24.9651 28.6047C25.041 29.4795 24.6623 30.31 23.9518 30.8261C23.5179 31.141 23.0112 31.3024 22.498 31.3024ZM11.7201 20.5144L14.016 23.1594C14.2934 23.4789 14.4293 23.8972 14.3927 24.3188L14.0899 27.8081L17.3149 26.4419C17.7045 26.2767 18.1445 26.2767 18.534 26.4419L21.759 27.8081L21.4562 24.3188C21.4196 23.8972 21.5555 23.4789 21.8329 23.1594L24.1288 20.5144L20.7166 19.7241C20.3045 19.6286 19.9485 19.37 19.7304 19.0075L17.9243 16.0066L16.1184 19.0075C15.9002 19.37 15.5443 19.6286 15.1321 19.7241L11.7201 20.5144Z" fill="#555555"></path><path d="M66.6504 31.3023C66.323 31.3023 65.9932 31.2367 65.6782 31.1032L62.0766 29.5775L58.4754 31.1032C57.6666 31.4456 56.7599 31.3423 56.0496 30.8261C55.3391 30.31 54.9604 29.4797 55.0363 28.6048L55.3744 24.7082L52.8105 21.7547C52.2347 21.0912 52.0533 20.1967 52.3249 19.3617C52.5963 18.5267 53.2691 17.91 54.1246 17.712L57.9347 16.8295L59.9515 13.4782C60.4041 12.7259 61.1987 12.2768 62.0769 12.2768C62.9552 12.2768 63.7496 12.7261 64.2024 13.4784L66.2193 16.8295L70.0296 17.712C70.8851 17.9101 71.5577 18.5268 71.8291 19.362C72.1005 20.1972 71.9188 21.0915 71.3433 21.7547L68.7794 24.7082L69.1176 28.6048C69.1933 29.4797 68.8147 30.3101 68.1043 30.8262C67.6702 31.1409 67.1633 31.3023 66.6504 31.3023ZM55.8722 20.5143L58.1682 23.1593C58.4455 23.4789 58.5815 23.8972 58.5449 24.3187L58.2421 27.8081L61.4671 26.4418C61.8568 26.2767 62.2966 26.2768 62.6863 26.4418L65.9113 27.8081L65.6085 24.3189C65.5721 23.8973 65.7079 23.479 65.9852 23.1595L68.2811 20.5145L64.8691 19.7242C64.4568 19.6287 64.101 19.3701 63.8827 19.0078L62.0766 16.0068L60.2707 19.0078C60.0526 19.3703 59.6966 19.6289 59.2844 19.7243L55.8722 20.5143Z" fill="#555555"></path><path d="M34.3465 23.3525C33.7887 23.3525 33.2374 23.177 32.7659 22.8344C31.9934 22.2731 31.5813 21.37 31.664 20.4187L32.0955 15.4451L28.8229 11.6751C28.197 10.9542 27.9995 9.98155 28.2945 9.07327C28.5895 8.16514 29.321 7.49421 30.2513 7.27874L35.1149 6.15249L37.6895 1.87499C38.1818 1.05686 39.046 0.568268 40.0007 0.568268H40.0009C40.9557 0.568268 41.8198 1.05686 42.3121 1.87499L44.8863 6.15233L49.7498 7.27858C50.6802 7.49405 51.4118 8.16499 51.7068 9.07327C52.0018 9.98139 51.8041 10.9542 51.1781 11.6751L47.9057 15.445L48.3374 20.4186C48.4199 21.3698 48.0081 22.273 47.2354 22.8342C46.4627 23.3953 45.4763 23.5081 44.5974 23.1356L40.0007 21.1884L35.404 23.1359C35.0613 23.2811 34.7026 23.3525 34.3465 23.3525ZM40.0007 17.9291C40.2081 17.9291 40.4154 17.9703 40.6101 18.0528L45.1626 19.9814L44.7351 15.0559C44.6987 14.6344 44.8345 14.2161 45.1118 13.8965L48.3527 10.163L43.5363 9.04749C43.124 8.95202 42.7682 8.69342 42.5499 8.33092L40.0007 4.09467L37.4513 8.33077C37.2332 8.69327 36.8774 8.95186 36.4651 9.04733L31.6485 10.1628L34.8896 13.8964C35.167 14.2158 35.3029 14.6342 35.2663 15.0558L34.8388 19.9812L39.3912 18.0526C39.586 17.9703 39.7934 17.9291 40.0007 17.9291Z" fill="#555555"></path></g><defs><radialGradient id="paint0_radial" cx="0" cy="0" r="1" gradientUnits="userSpaceOnUse" gradientTransform="translate(8.05078 31.3025) rotate(-25.6864) scale(70.907 55.3942)"><stop stop-color="#FBBE3A"></stop><stop offset="0.350699" stop-color="#FB38FA"></stop><stop offset="0.663889" stop-color="#6D41FF"></stop><stop offset="1" stop-color="#18EEEC"></stop></radialGradient><clipPath id="clip0"><rect width="80" height="76" fill="white"></rect></clipPath></defs></svg> 