<?xml version="1.0" encoding="UTF-8"?> <svg xmlns="http://www.w3.org/2000/svg" width="80" height="80" viewBox="0 0 80 80" fill="none"><path d="M21.2124 18.6265C21.8596 18.6265 22.3843 18.1018 22.3843 17.4546C22.3843 16.8074 21.8596 16.2828 21.2124 16.2828H18.6266V13.6971C18.6266 12.2714 19.7866 11.1115 21.2124 11.1115H22.4649C23.1121 11.1115 23.6368 10.5868 23.6368 9.93964C23.6368 9.29245 23.1121 8.76776 22.4649 8.76776H21.2124C18.4943 8.76776 16.2829 10.979 16.2829 13.6971V16.2828H13.6973C13.0501 16.2828 12.5254 16.8074 12.5254 17.4546C12.5254 18.1018 13.0501 18.6265 13.6973 18.6265H16.2829V27.4748C16.2829 28.122 16.8076 28.6467 17.4548 28.6467C18.1019 28.6467 18.6266 28.122 18.6266 27.4748V18.6265H21.2124Z" fill="url(#paint0_radial)"></path><path d="M62.4647 42.6236V37.3767C72.2359 36.7697 80 28.6287 80 18.7073C80 14.462 78.6136 10.4597 75.9905 7.13325C75.5897 6.62481 74.853 6.53778 74.3447 6.93856C73.8366 7.33918 73.7494 8.07606 74.15 8.58434C76.4439 11.4932 77.6562 14.9937 77.6562 18.7073C77.6562 27.7301 70.3158 35.0707 61.2928 35.0707C52.2698 35.0707 44.9294 27.7301 44.9294 18.7073C44.9294 9.6845 52.27 2.34387 61.2928 2.34387C64.6598 2.34387 67.8934 3.35825 70.6439 5.27715C71.1748 5.64747 71.9052 5.51762 72.2755 4.98668C72.6458 4.4559 72.5158 3.72543 71.985 3.35512C68.8392 1.16028 65.1419 0.00012207 61.2928 0.00012207C51.3714 0.00012207 43.2305 7.76418 42.6234 17.5354H37.3766C36.7695 7.76418 28.6286 0.00012207 18.7072 0.00012207C8.39188 0.00012207 0 8.392 0 18.7073C0 28.6289 7.76406 36.7697 17.5353 37.3767V42.6236C7.76406 43.2306 0 51.3715 0 61.2929C0 71.6082 8.39188 80.0001 18.7072 80.0001C28.6287 80.0001 36.7695 72.2361 37.3766 62.4648H42.6234C43.2305 72.2361 51.3714 80.0001 61.2928 80.0001C71.6081 80.0001 80 71.6082 80 61.2929C80 51.3715 72.2359 43.2306 62.4647 42.6236ZM2.34375 18.7073C2.34375 9.68434 9.68422 2.34387 18.7072 2.34387C27.7302 2.34387 35.0706 9.68434 35.0706 18.7073C35.0706 27.7303 27.73 35.0707 18.7072 35.0707C9.68437 35.0707 2.34375 27.7301 2.34375 18.7073ZM18.7072 77.6564C9.68422 77.6564 2.34375 70.3159 2.34375 61.2929C2.34375 52.27 9.68422 44.9295 18.7072 44.9295C22.0742 44.9295 25.3078 45.9439 28.0583 47.8628C28.5892 48.2331 29.3197 48.1031 29.6898 47.5723C30.0602 47.0415 29.9302 46.3111 29.3994 45.9407C26.5744 43.9698 23.3041 42.8364 19.8791 42.6251V37.3767C29.2627 36.7937 36.7936 29.2626 37.3766 19.8792H42.6234C43.2064 29.2628 50.7375 36.7937 60.1209 37.3767V42.6236C50.7373 43.2065 43.2064 50.7376 42.6234 60.1211H37.3747C37.1428 56.3129 35.785 52.7373 33.4048 49.7187C33.0041 49.2104 32.2673 49.1234 31.7589 49.5242C31.2508 49.9248 31.1636 50.6617 31.5642 51.17C33.858 54.079 35.0703 57.5795 35.0703 61.2931C35.0706 70.3159 27.73 77.6564 18.7072 77.6564ZM61.2928 77.6564C52.27 77.6564 44.9294 70.3159 44.9294 61.2929C44.9294 52.27 52.27 44.9295 61.2928 44.9295C70.3156 44.9295 77.6562 52.2701 77.6562 61.2929C77.6562 70.3157 70.3158 77.6564 61.2928 77.6564Z" fill="#555555"></path><path d="M58.8737 11.5474C58.0614 11.1412 57.1155 11.1838 56.3431 11.6613C55.5706 12.1387 55.1094 12.9659 55.1094 13.874V23.5409C55.1094 24.449 55.5706 25.276 56.3431 25.7535C56.7634 26.0134 57.2352 26.1443 57.7089 26.1443C58.1056 26.1443 58.5036 26.0524 58.8737 25.8673L68.5406 21.0338C69.4275 20.5904 69.9784 19.699 69.9784 18.7074C69.9784 17.7159 69.4275 16.8245 68.5406 16.381L58.8737 11.5474ZM67.4925 18.9374L57.8255 23.7709C57.7195 23.8238 57.6309 23.794 57.5752 23.7596C57.5194 23.7253 57.4531 23.6593 57.4531 23.5407V13.8738C57.4531 13.7553 57.5195 13.6893 57.5752 13.6549C57.6089 13.634 57.6548 13.6148 57.7095 13.6148C57.7448 13.6148 57.7839 13.6228 57.8255 13.6437L67.4923 18.4771C67.5867 18.5243 67.6345 18.6017 67.6345 18.7073C67.6345 18.8129 67.5867 18.8901 67.4925 18.9374Z" fill="#555555"></path><path fill-rule="evenodd" clip-rule="evenodd" d="M67.4925 18.9375L57.8255 23.7709C57.7195 23.8239 57.6309 23.7941 57.5752 23.7597C57.5194 23.7253 57.4531 23.6594 57.4531 23.5408V13.8739C57.4531 13.7553 57.5195 13.6894 57.5752 13.655C57.6089 13.6341 57.6548 13.6148 57.7095 13.6148C57.7448 13.6148 57.7839 13.6228 57.8255 13.6437L67.4923 18.4772C67.5867 18.5244 67.6345 18.6017 67.6345 18.7073C67.6345 18.813 67.5867 18.8902 67.4925 18.9375Z" fill="url(#paint1_radial)"></path><path d="M23.7167 52.6059H13.6964C11.6689 52.6059 10.0195 54.2554 10.0195 56.2828V66.3029C10.0195 68.3304 11.6691 69.9798 13.6964 69.9798H23.7166C25.7441 69.9798 27.3934 68.3303 27.3934 66.3029V56.2828C27.3936 54.2554 25.7441 52.6059 23.7167 52.6059ZM25.0498 66.3031C25.0498 67.0382 24.4517 67.6362 23.7167 67.6362H13.6964C12.9613 67.6362 12.3633 67.0381 12.3633 66.3031V56.2829C12.3633 55.5478 12.9614 54.9498 13.6964 54.9498H23.7166C24.4517 54.9498 25.0497 55.5479 25.0497 56.2829V66.3031H25.0498Z" fill="#555555"></path><path d="M25.0518 66.3031C25.0518 67.0382 24.4537 67.6362 23.7187 67.6362H13.6984C12.9632 67.6362 12.3652 67.0381 12.3652 66.3031V56.2829C12.3652 55.5478 12.9634 54.9498 13.6984 54.9498H23.7185C24.4537 54.9498 25.0516 55.5479 25.0516 56.2829L25.0518 66.3031Z" fill="url(#paint2_radial)"></path><path d="M18.7081 57.6161C16.6806 57.6161 15.0312 59.2656 15.0312 61.2931C15.0312 63.3206 16.6808 64.97 18.7081 64.97C20.7356 64.97 22.3852 63.3205 22.3852 61.2931C22.385 59.2655 20.7356 57.6161 18.7081 57.6161ZM18.7081 62.6262C17.973 62.6262 17.375 62.0281 17.375 61.2931C17.375 60.558 17.9731 59.9598 18.7081 59.9598C19.4433 59.9598 20.0414 60.558 20.0414 61.2931C20.0413 62.0281 19.4433 62.6262 18.7081 62.6262Z" fill="white"></path><path d="M61.293 51.3534C55.8123 51.3534 51.3535 55.8123 51.3535 61.2929C51.3535 63.0892 51.8321 64.8281 52.7434 66.3604L51.4374 69.6253C51.2634 70.0606 51.3654 70.5576 51.6968 70.8892C51.9209 71.1132 52.2205 71.2324 52.5257 71.2324C52.6721 71.2324 52.8196 71.2051 52.9607 71.1485L56.2255 69.8426C57.7579 70.7537 59.4968 71.2324 61.2932 71.2324C66.7738 71.2324 71.2327 66.7735 71.2327 61.2929C71.2326 55.8123 66.7738 51.3534 61.293 51.3534ZM61.293 68.8887C59.7571 68.8887 58.2762 68.4307 57.0102 67.5643C56.8124 67.4289 56.5812 67.3595 56.3482 67.3595C56.2012 67.3595 56.0535 67.3871 55.913 67.4434L54.629 67.9571L55.1426 66.6729C55.2879 66.3099 55.2424 65.8984 55.0216 65.5757C54.1552 64.3098 53.6973 62.8289 53.6973 61.2931C53.6973 57.1046 57.1048 53.6973 61.293 53.6973C65.4813 53.6973 68.8888 57.1048 68.8888 61.2931C68.8888 65.4814 65.4815 68.8887 61.293 68.8887Z" fill="#555555"></path><path fill-rule="evenodd" clip-rule="evenodd" d="M61.293 68.8888C59.7571 68.8888 58.2762 68.4308 57.0102 67.5644C56.8124 67.4289 56.5812 67.3595 56.3482 67.3595C56.2012 67.3595 56.0535 67.3872 55.913 67.4434L54.629 67.9572L55.1426 66.673C55.2879 66.31 55.2424 65.8984 55.0216 65.5758C54.1552 64.3099 53.6973 62.8289 53.6973 61.2931C53.6973 57.1047 57.1048 53.6974 61.293 53.6974C65.4813 53.6974 68.8888 57.1049 68.8888 61.2931C68.8888 65.4814 65.4815 68.8888 61.293 68.8888Z" fill="url(#paint3_radial)"></path><path d="M63.1209 63.1214C62.6327 63.6097 61.9833 63.8787 61.2927 63.8787C60.602 63.8787 59.9527 63.6097 59.4642 63.1214C58.9758 62.6331 58.7069 61.9837 58.7069 61.2931C58.7069 60.6025 58.9758 59.9531 59.4642 59.4647C59.9219 59.007 59.9219 58.265 59.4642 57.8075C59.0066 57.3498 58.2645 57.3498 57.807 57.8075C56.8759 58.7384 56.3633 59.9764 56.3633 61.2931C56.3633 62.6098 56.8759 63.8476 57.807 64.7787C58.738 65.7098 59.9759 66.2226 61.2927 66.2226C62.6094 66.2226 63.8472 65.7098 64.7783 64.7787C65.2359 64.3211 65.2359 63.579 64.7783 63.1215C64.3205 62.6636 63.5784 62.6637 63.1209 63.1214Z" fill="white"></path><defs><radialGradient id="paint0_radial" cx="0" cy="0" r="1" gradientUnits="userSpaceOnUse" gradientTransform="translate(12.5254 28.6467) rotate(-60.7968) scale(22.7735 19.3982)"><stop stop-color="#00C1AE"></stop><stop offset="0.350699" stop-color="#0BA6BE"></stop><stop offset="0.663889" stop-color="#2972C6"></stop><stop offset="1" stop-color="#8440C9"></stop></radialGradient><radialGradient id="paint1_radial" cx="0" cy="0" r="1" gradientUnits="userSpaceOnUse" gradientTransform="translate(55.1094 26.1444) rotate(-45.0094) scale(21.0315)"><stop stop-color="#00C1AE"></stop><stop offset="0.350699" stop-color="#0BA6BE"></stop><stop offset="0.663889" stop-color="#2972C6"></stop><stop offset="1" stop-color="#8440C9"></stop></radialGradient><radialGradient id="paint2_radial" cx="0" cy="0" r="1" gradientUnits="userSpaceOnUse" gradientTransform="translate(10.0215 69.9798) rotate(-45) scale(24.5704)"><stop stop-color="#00C1AE"></stop><stop offset="0.350699" stop-color="#0BA6BE"></stop><stop offset="0.663889" stop-color="#2972C6"></stop><stop offset="1" stop-color="#8440C9"></stop></radialGradient><radialGradient id="paint3_radial" cx="0" cy="0" r="1" gradientUnits="userSpaceOnUse" gradientTransform="translate(51.3535 71.2325) rotate(-44.9998) scale(28.1133)"><stop stop-color="#00C1AE"></stop><stop offset="0.350699" stop-color="#0BA6BE"></stop><stop offset="0.663889" stop-color="#2972C6"></stop><stop offset="1" stop-color="#8440C9"></stop></radialGradient></defs></svg> 