<?xml version="1.0" encoding="UTF-8"?> <svg xmlns="http://www.w3.org/2000/svg" width="80" height="80" viewBox="0 0 80 80" fill="none"><path d="M29.4294 63.995L25.9595 76.6603C25.7184 77.5403 26.2362 78.4494 27.1164 78.6905C27.9969 78.9316 28.9055 78.4131 29.1466 77.5336L32.6173 64.8652C31.5312 64.6339 30.467 64.3434 29.4294 63.995Z" fill="#707487"></path><path d="M47.9886 63.995C46.9509 64.3434 45.8867 64.6341 44.8008 64.8652L48.2716 77.5336C48.5127 78.4137 49.4216 78.9316 50.3017 78.6905C51.1819 78.4494 51.6997 77.5405 51.4586 76.6603L47.9886 63.995Z" fill="#707487"></path><path d="M38.707 7.88281C39.2617 7.88281 39.8122 7.89984 40.3594 7.93047V2.90234C40.3594 1.98984 39.6197 1.25 38.707 1.25C37.7945 1.25 37.0547 1.98969 37.0547 2.90234V7.93031C37.6017 7.89984 38.1523 7.88281 38.707 7.88281Z" fill="#707487"></path><path d="M38.7056 65.6616C54.7901 65.6616 67.8292 52.6225 67.8292 36.538C67.8292 20.4534 54.7901 7.41437 38.7056 7.41437C22.6211 7.41437 9.58203 20.4534 9.58203 36.538C9.58203 52.6225 22.6211 65.6616 38.7056 65.6616Z" fill="url(#paint0_radial)"></path><path d="M38.7075 59.933C51.6282 59.933 62.1025 49.4587 62.1025 36.538C62.1025 23.6173 51.6282 13.143 38.7075 13.143C25.7868 13.143 15.3125 23.6173 15.3125 36.538C15.3125 49.4587 25.7868 59.933 38.7075 59.933Z" fill="white"></path><path d="M38.7087 53.9186C48.3078 53.9186 56.0894 46.137 56.0894 36.538C56.0894 26.9389 48.3078 19.1573 38.7087 19.1573C29.1097 19.1573 21.3281 26.9389 21.3281 36.538C21.3281 46.137 29.1097 53.9186 38.7087 53.9186Z" fill="url(#paint1_radial)"></path><path d="M38.708 47.6933C44.8689 47.6933 49.8633 42.6989 49.8633 36.538C49.8633 30.3771 44.8689 25.3827 38.708 25.3827C32.5471 25.3827 27.5527 30.3771 27.5527 36.538C27.5527 42.6989 32.5471 47.6933 38.708 47.6933Z" fill="white"></path><path d="M38.7085 41.9281C41.6854 41.9281 44.0987 39.5148 44.0987 36.5379C44.0987 33.561 41.6854 31.1478 38.7085 31.1478C35.7316 31.1478 33.3184 33.561 33.3184 36.5379C33.3184 39.5148 35.7316 41.9281 38.7085 41.9281Z" fill="url(#paint2_radial)"></path><path d="M65.4186 15.5191C66.283 15.9172 67.3737 15.6744 68.1327 14.9153L70.8489 12.1994C71.3916 11.6567 71.6416 10.92 71.5181 10.2286C71.4111 9.63078 71.0383 9.14438 70.4945 8.89391L67.6298 7.57469L66.3105 4.71C66.06 4.16641 65.5736 3.79328 64.9758 3.68656C64.2844 3.56281 63.5476 3.81313 63.005 4.35578L60.2889 7.07187C59.5298 7.83109 59.2872 8.92203 59.6853 9.78594L60.9705 12.5767L59.3206 14.2266C59.2811 14.19 59.2425 14.1523 59.2027 14.1159C54.3042 9.62766 48.127 6.90453 41.5689 6.29516V2.82438C41.5689 1.26688 40.3022 0 38.7448 0C37.1875 0 35.9206 1.26688 35.9206 2.82422V6.29656C20.535 7.72578 8.44922 20.7067 8.44922 36.4594C8.44922 44.0553 11.2731 51.3206 16.4009 56.9173C19.6497 60.463 23.6433 63.1472 28.0495 64.8091L24.8659 76.4287C24.4536 77.9342 25.3375 79.4864 26.8441 79.8989C28.3548 80.312 29.9041 79.4148 30.3134 77.9212L33.498 66.2978C34.2917 66.4366 35.0933 66.5458 35.9016 66.6211C36.5464 66.6811 37.117 66.2069 37.177 65.563C37.237 64.9184 36.7633 64.3475 36.1189 64.2873C21.77 62.9506 10.7931 51.0628 10.7931 36.4594C10.7931 21.0506 23.3264 8.51688 38.7303 8.50781C38.7352 8.50781 38.74 8.50766 38.7448 8.50766C38.7508 8.50766 38.7569 8.50781 38.7628 8.50781C45.815 8.51094 52.5419 11.1094 57.6984 15.8484L55.2595 18.2873C50.8939 14.3166 45.0972 11.893 38.7448 11.893C25.1989 11.893 14.1783 22.9134 14.1783 36.4595C14.1783 50.0056 25.1987 61.0259 38.7448 61.0259C52.2909 61.0259 63.3114 50.0055 63.3114 36.4595C63.3114 30.1073 60.8878 24.3105 56.917 19.9448L59.3564 17.5055C63.3508 21.853 65.9831 27.5017 66.573 33.8336C66.6331 34.478 67.2042 34.9517 67.8484 34.8917C68.493 34.8317 68.9666 34.2606 68.9066 33.6161C68.2873 26.9683 65.495 20.7597 60.978 15.8837L62.628 14.2338L65.4186 15.5191ZM31.2027 65.8067L28.0533 77.3019C27.9848 77.5514 27.7202 77.7083 27.4631 77.6381C27.2077 77.5681 27.0567 77.3041 27.127 77.0481L30.2762 65.5537C30.3059 65.5623 30.3363 65.5697 30.3661 65.5783C30.6211 65.6516 30.8772 65.7214 31.1344 65.788C31.157 65.7939 31.1797 65.8008 31.2027 65.8067ZM38.2645 6.16797V2.82422C38.2645 2.55938 38.48 2.34391 38.7448 2.34391C39.0095 2.34391 39.225 2.55938 39.225 2.82422V6.16797C38.9073 6.16266 38.5653 6.16297 38.2645 6.16797ZM66.4753 13.2581C66.4172 13.3162 66.3614 13.3448 66.3278 13.3573L64.3947 12.4672L66.9978 9.86406L68.9641 10.7695L66.4753 13.2581ZM61.9466 8.72875L64.4352 6.24016L65.3406 8.20641L62.7375 10.8095L61.8473 8.87641C61.8597 8.84266 61.8884 8.78687 61.9466 8.72875ZM60.9675 36.4595C60.9675 48.713 50.9984 58.682 38.7448 58.682C26.4912 58.682 16.5222 48.713 16.5222 36.4595C16.5222 24.2061 26.4912 14.2369 38.7448 14.2369C44.4509 14.2369 49.6608 16.3994 53.6002 19.9467L51.0023 22.5445C47.7311 19.6595 43.4392 17.9061 38.745 17.9061C28.5145 17.9061 20.1917 26.2291 20.1917 36.4594C20.1917 46.6897 28.5148 55.0127 38.745 55.0127C48.9752 55.0127 57.2983 46.6897 57.2983 36.4594C57.2983 31.765 55.5448 27.4731 52.6598 24.2019L55.2576 21.6041C58.8051 25.5434 60.9675 30.7534 60.9675 36.4595ZM42.9631 36.4595C42.9631 38.7855 41.0708 40.6778 38.7448 40.6778C36.4189 40.6778 34.5266 38.7855 34.5266 36.4595C34.5266 34.1336 36.4189 32.2412 38.7448 32.2412C39.4827 32.2412 40.1764 32.4322 40.7805 32.7664L37.9161 35.6308C37.4584 36.0884 37.4584 36.8305 37.9161 37.2881C38.3739 37.7458 39.1158 37.7458 39.5736 37.2881L42.4378 34.4239C42.7722 35.028 42.9631 35.7217 42.9631 36.4595ZM42.4792 31.0678C41.4184 30.3309 40.1317 29.8973 38.7452 29.8973C35.1269 29.8973 32.1831 32.8411 32.1831 36.4594C32.1831 40.0777 35.1269 43.0214 38.7452 43.0214C42.3634 43.0214 45.3072 40.0777 45.3072 36.4594C45.3072 35.0728 44.8737 33.7859 44.1367 32.7253L46.5792 30.2828C47.923 31.9836 48.7283 34.1286 48.7283 36.4594C48.7283 41.9641 44.2498 46.4425 38.7452 46.4425C33.2405 46.4425 28.762 41.9641 28.762 36.4594C28.762 30.9547 33.2405 26.4762 38.7452 26.4762C41.0761 26.4762 43.2211 27.2814 44.9217 28.6253L42.4792 31.0678ZM46.5892 26.9578C44.4564 25.1939 41.7223 24.1327 38.7448 24.1327C31.9478 24.1327 26.418 29.6625 26.418 36.4595C26.418 43.2566 31.9478 48.7864 38.7448 48.7864C45.5419 48.7864 51.0717 43.2566 51.0717 36.4595C51.0717 33.4822 50.0105 30.748 48.2466 28.6152L51.0001 25.8616C53.4627 28.7052 54.9542 32.4114 54.9542 36.4595C54.9542 45.3973 47.6827 52.6689 38.7448 52.6689C29.807 52.6689 22.5355 45.3973 22.5355 36.4595C22.5355 27.5217 29.807 20.2502 38.7448 20.2502C42.7928 20.2502 46.4991 21.7419 49.3428 24.2041L46.5892 26.9578Z" fill="#555555"></path><path fill-rule="evenodd" clip-rule="evenodd" d="M68.1321 14.9153C67.3732 15.6744 66.2824 15.9172 65.418 15.519L62.6274 14.2337L60.9774 15.8837L42.4372 34.4239L39.573 37.2881C39.1152 37.7458 38.3733 37.7458 37.9155 37.2881C37.4579 36.8304 37.4579 36.0884 37.9155 35.6308L40.7799 32.7664L59.32 14.2265L60.9699 12.5767L59.6847 9.78592C59.2866 8.92201 59.5293 7.83107 60.2883 7.07185L63.0044 4.35576C63.5471 3.8131 64.2838 3.56279 64.9752 3.68654C65.573 3.79326 66.0594 4.16639 66.3099 4.70998L67.6293 7.57467L70.494 8.89389C71.0377 9.14435 71.4105 9.63076 71.5175 10.2286C71.641 10.92 71.391 11.6567 70.8483 12.1994L68.1321 14.9153ZM66.4747 13.2581C66.4166 13.3162 66.3608 13.3448 66.3272 13.3573L64.3941 12.4672L66.9972 9.86404L68.9635 10.7695L66.4747 13.2581ZM64.4346 6.24014L61.946 8.72873C61.8879 8.78685 61.8591 8.84263 61.8468 8.87638L62.7369 10.8095L65.34 8.20639L64.4346 6.24014Z" fill="#555555"></path><path d="M67.8493 38.027C67.2071 37.9678 66.634 38.4406 66.5739 39.0852C65.3248 52.4956 54.6739 63.0485 41.3718 64.2874C40.7273 64.3474 40.2537 64.9185 40.3137 65.563C40.3737 66.2072 40.9447 66.6811 41.5892 66.6211C42.4004 66.5455 43.2018 66.4364 43.9929 66.2985L47.1772 77.9211C47.5839 79.4053 49.127 80.3149 50.647 79.8988C52.1528 79.4864 53.0373 77.9344 52.6248 76.4286L49.4423 64.813C60.0561 60.8149 67.8143 51.0422 68.9078 39.3027C68.9675 38.6581 68.4939 38.0872 67.8493 38.027ZM47.2147 65.5539L50.3639 77.0481C50.4336 77.3025 50.2848 77.5678 50.0278 77.6383C49.7711 77.7091 49.5057 77.5516 49.4375 77.3022L46.2882 65.8072C46.5851 65.7313 46.8797 65.65 47.1729 65.5653C47.1868 65.5613 47.2009 65.5578 47.2147 65.5539Z" fill="#555555"></path><defs><radialGradient id="paint0_radial" cx="0" cy="0" r="1" gradientUnits="userSpaceOnUse" gradientTransform="translate(9.58203 65.6616) rotate(-45) scale(82.374)"><stop stop-color="#00C1AE"></stop><stop offset="0.350699" stop-color="#0BA6BE"></stop><stop offset="0.663889" stop-color="#2972C6"></stop><stop offset="1" stop-color="#8440C9"></stop></radialGradient><radialGradient id="paint1_radial" cx="0" cy="0" r="1" gradientUnits="userSpaceOnUse" gradientTransform="translate(21.3281 53.9186) rotate(-45) scale(49.1598)"><stop stop-color="#00C1AE"></stop><stop offset="0.350699" stop-color="#0BA6BE"></stop><stop offset="0.663889" stop-color="#2972C6"></stop><stop offset="1" stop-color="#8440C9"></stop></radialGradient><radialGradient id="paint2_radial" cx="0" cy="0" r="1" gradientUnits="userSpaceOnUse" gradientTransform="translate(33.3184 41.9281) rotate(-45) scale(15.2456)"><stop stop-color="#00C1AE"></stop><stop offset="0.350699" stop-color="#0BA6BE"></stop><stop offset="0.663889" stop-color="#2972C6"></stop><stop offset="1" stop-color="#8440C9"></stop></radialGradient></defs></svg> 