<?xml version="1.0" encoding="UTF-8"?> <svg xmlns="http://www.w3.org/2000/svg" width="80" height="80" viewBox="0 0 80 80" fill="none"><g clip-path="url(#clip0)"><path d="M27.0914 0.00115967C42.0296 0.00115967 54.1826 12.1541 54.1826 27.0924C54.1826 34.1042 51.5047 40.502 47.1183 45.3179L51.7147 49.9143L52.7357 48.8934C53.7621 47.8672 55.4322 47.8672 56.4588 48.8934L78.433 70.8674C79.4436 71.8781 80 73.2215 80 74.6507C80 76.0799 79.4436 77.4234 78.433 78.434C77.3898 79.4771 76.0197 79.9985 74.6497 79.9985C73.2797 79.9985 71.9095 79.4771 70.8664 78.434L48.8922 56.4598C47.866 55.4334 47.866 53.7632 48.8922 52.7367L49.913 51.7159L45.3166 47.1195C40.5009 51.5059 34.1029 54.1837 27.091 54.1837C12.1528 54.1837 -0.000160217 42.0308 -0.000160217 27.0925C-0.000160217 12.1543 12.1531 0.00115967 27.0914 0.00115967ZM50.694 54.6586L72.668 76.6324C73.7608 77.7251 75.5386 77.7249 76.6314 76.6324C77.1606 76.1031 77.4523 75.3993 77.4523 74.6507C77.4523 73.9021 77.1609 73.1984 76.6314 72.669L54.6574 50.695C54.6407 50.6782 54.619 50.6701 54.5972 50.6701C54.5755 50.6701 54.5538 50.6784 54.5371 50.695L50.6938 54.5382C50.6608 54.5714 50.6608 54.6253 50.694 54.6586ZM27.0914 51.6359C40.6248 51.6359 51.6349 40.6258 51.6349 27.0924C51.6349 13.5589 40.6248 2.54881 27.0914 2.54881C13.5579 2.54881 2.54796 13.5591 2.54796 27.0924C2.54796 40.6256 13.5579 51.6359 27.0914 51.6359Z" fill="#555555"></path><path d="M50.694 54.6586L72.668 76.6324C73.7608 77.7251 75.5386 77.7249 76.6314 76.6324C77.1606 76.1031 77.4523 75.3993 77.4523 74.6507C77.4523 73.9021 77.1609 73.1984 76.6314 72.669L54.6574 50.695C54.6407 50.6782 54.619 50.6701 54.5972 50.6701C54.5755 50.6701 54.5538 50.6784 54.5371 50.695L50.6938 54.5382C50.6608 54.5714 50.6608 54.6253 50.694 54.6586Z" fill="#555555"></path><path d="M9.87303 13.9559C10.3005 13.397 11.0999 13.2905 11.6588 13.7179C12.2176 14.1454 12.3241 14.9449 11.8968 15.5037C6.11147 23.0682 6.83538 33.8591 13.5808 40.6044C20.3264 47.35 31.118 48.0738 38.6825 42.2878C39.2412 41.8603 40.0409 41.9667 40.4683 42.5256C40.8958 43.0844 40.7894 43.8841 40.2305 44.3114C36.3534 47.2769 31.7294 48.7341 27.1191 48.7341C21.533 48.7341 15.9677 46.5942 11.7793 42.4061C4.13461 34.7613 3.31507 22.5304 9.87303 13.9559Z" fill="#555555"></path><path d="M40.6028 13.5812C33.8575 6.83573 23.0664 6.11183 15.502 11.8971C14.9431 12.3246 14.1437 12.2179 13.7163 11.6592C13.2889 11.1004 13.3955 10.3009 13.9542 9.87338C22.5287 3.31558 34.7598 4.13495 42.4043 11.7796C50.0493 19.4246 50.8685 31.6559 44.3099 40.2305C44.059 40.5583 43.6803 40.7305 43.2973 40.7305C43.0275 40.7305 42.7553 40.6451 42.5243 40.4685C41.9656 40.0411 41.859 39.2415 42.2865 38.6827C48.0721 31.1182 47.3484 20.327 40.6028 13.5812Z" fill="#555555"></path><path d="M34.5889 15.1077H19.4148C17.037 15.1077 15.1094 17.0353 15.1094 19.413V34.5872C15.1094 36.965 17.037 38.8926 19.4148 38.8926H34.589C36.9667 38.8926 38.8943 36.965 38.8943 34.5872V19.413C38.8943 17.0352 36.9667 15.1077 34.5889 15.1077ZM37.9911 34.5872C37.9911 36.4661 36.4679 37.9894 34.5889 37.9894H19.4148C17.5358 37.9894 16.0126 36.4661 16.0126 34.5872V19.413C16.0126 17.5341 17.5358 16.0109 19.4148 16.0109H34.589C36.4679 16.0109 37.9911 17.5341 37.9911 19.413L37.9911 34.5872Z" fill="url(#paint0_radial)"></path><path d="M37.9911 34.5872C37.9911 36.4661 36.4679 37.9894 34.5889 37.9894H19.4148C17.5358 37.9894 16.0126 36.4661 16.0126 34.5872V19.413C16.0126 17.5341 17.5358 16.0109 19.4148 16.0109H34.589C36.4679 16.0109 37.9911 17.5341 37.9911 19.413L37.9911 34.5872Z" fill="url(#paint1_radial)"></path><path d="M34.5889 15.1077H19.4148C17.037 15.1077 15.1094 17.0353 15.1094 19.413V34.5872C15.1094 36.965 17.037 38.8926 19.4148 38.8926H34.589C36.9667 38.8926 38.8943 36.965 38.8943 34.5872V19.413C38.8943 17.0352 36.9667 15.1077 34.5889 15.1077ZM37.9911 34.5872C37.9911 36.4661 36.4679 37.9894 34.5889 37.9894H19.4148C17.5358 37.9894 16.0126 36.4661 16.0126 34.5872V19.413C16.0126 17.5341 17.5358 16.0109 19.4148 16.0109H34.589C36.4679 16.0109 37.9911 17.5341 37.9911 19.413L37.9911 34.5872Z" stroke="#555555" stroke-width="0.5"></path><path d="M37.9911 34.5872C37.9911 36.4661 36.4679 37.9894 34.5889 37.9894H19.4148C17.5358 37.9894 16.0126 36.4661 16.0126 34.5872V19.413C16.0126 17.5341 17.5358 16.0109 19.4148 16.0109H34.589C36.4679 16.0109 37.9911 17.5341 37.9911 19.413L37.9911 34.5872Z" stroke="#555555" stroke-width="0.5"></path><path d="M34.5889 15.1077H19.4148C17.037 15.1077 15.1094 17.0353 15.1094 19.413V34.5872C15.1094 36.965 17.037 38.8926 19.4148 38.8926H34.589C36.9667 38.8926 38.8943 36.965 38.8943 34.5872V19.413C38.8943 17.0352 36.9667 15.1077 34.5889 15.1077ZM37.9911 34.5872C37.9911 36.4661 36.4679 37.9894 34.5889 37.9894H19.4148C17.5358 37.9894 16.0126 36.4661 16.0126 34.5872V19.413C16.0126 17.5341 17.5358 16.0109 19.4148 16.0109H34.589C36.4679 16.0109 37.9911 17.5341 37.9911 19.413V34.5872H37.9911Z" fill="#555555" stroke="#555555" stroke-width="0.5"></path><path d="M27.0294 18.4797C22.3478 18.4797 18.5391 22.2884 18.5391 26.97C18.5391 28.4626 18.9319 29.9307 19.6752 31.2155C19.8001 31.4314 20.0764 31.5051 20.2923 31.3803C20.5081 31.2554 20.582 30.9792 20.4571 30.7633C19.7933 29.6157 19.4423 28.304 19.4423 26.97C19.4423 22.7865 22.8459 19.3829 27.0294 19.3829C31.2129 19.3829 34.6165 22.7865 34.6165 26.97C34.6165 31.1536 31.2129 34.5571 27.0294 34.5571C24.9244 34.5571 22.9677 33.7151 21.5197 32.1861C21.3482 32.005 21.0624 31.9972 20.8813 32.1688C20.7002 32.3403 20.6924 32.6261 20.8639 32.8073C22.4843 34.5181 24.6739 35.4603 27.0294 35.4603C31.711 35.4603 35.5198 31.6516 35.5198 26.97C35.5198 22.2883 31.711 18.4797 27.0294 18.4797Z" fill="#555555" stroke="#555555" stroke-width="0.5"></path><path d="M27.0304 31.5464C24.5069 31.5464 22.454 29.4935 22.454 26.9701C22.454 24.4466 24.5069 22.3937 27.0304 22.3937C29.5538 22.3937 31.6067 24.4466 31.6067 26.9701C31.6067 29.4935 29.5537 31.5464 27.0304 31.5464Z" fill="white" stroke="#555555" stroke-width="0.5"></path><path d="M27.0304 21.4905C24.0089 21.4905 21.5508 23.9486 21.5508 26.9701C21.5508 29.9915 24.0089 32.4496 27.0304 32.4496C30.0518 32.4496 32.5099 29.9915 32.5099 26.9701C32.5099 23.9486 30.0518 21.4905 27.0304 21.4905ZM27.0304 31.5464C24.5069 31.5464 22.454 29.4934 22.454 26.97C22.454 24.4466 24.5069 22.3936 27.0304 22.3936C29.5538 22.3936 31.6067 24.4466 31.6067 26.97C31.6067 29.4934 29.5537 31.5464 27.0304 31.5464Z" fill="#555555" stroke="#555555" stroke-width="0.5"></path><path d="M34.7371 17.2754C33.6414 17.2754 32.75 18.1668 32.75 19.2625C32.75 20.3582 33.6414 21.2496 34.7371 21.2496C35.8327 21.2496 36.7242 20.3582 36.7242 19.2625C36.7242 18.1669 35.8327 17.2754 34.7371 17.2754ZM34.7371 20.3464C34.1394 20.3464 33.6532 19.8601 33.6532 19.2625C33.6532 18.6649 34.1394 18.1787 34.7371 18.1787C35.3347 18.1787 35.8209 18.6649 35.8209 19.2625C35.8209 19.8601 35.3347 20.3464 34.7371 20.3464Z" fill="#555555" stroke="#555555" stroke-width="0.5"></path><path d="M34.7371 20.3464C34.1394 20.3464 33.6532 19.8601 33.6532 19.2625C33.6532 18.6649 34.1394 18.1787 34.7371 18.1787C35.3347 18.1787 35.8209 18.6649 35.8209 19.2625C35.8209 19.8601 35.3347 20.3464 34.7371 20.3464Z" fill="white" stroke="#555555" stroke-width="0.5"></path><path d="M34.7678 13.0001H19.2322C15.7903 13.0001 13 15.7904 13 19.2324V34.7678C13 38.2098 15.7903 41.0001 19.2322 41.0001H34.7677C38.2097 41.0001 41 38.2098 41 34.7679V19.2324C41 15.7904 38.2097 13.0001 34.7678 13.0001ZM40.0968 34.7679C40.0968 37.711 37.7109 40.0969 34.7678 40.0969H19.2322C16.2891 40.0969 13.9032 37.711 13.9032 34.7679V19.2324C13.9032 16.2892 16.2891 13.9033 19.2322 13.9033H34.7677C37.7108 13.9033 40.0967 16.2892 40.0967 19.2324V34.7679H40.0968Z" fill="#555555" stroke="#555555" stroke-width="0.5"></path></g><defs><radialGradient id="paint0_radial" cx="0" cy="0" r="1" gradientUnits="userSpaceOnUse" gradientTransform="translate(15.1094 38.8926) rotate(-45) scale(33.637)"><stop stop-color="#00C1AE"></stop><stop offset="0.350699" stop-color="#0BA6BE"></stop><stop offset="0.663889" stop-color="#2972C6"></stop><stop offset="1" stop-color="#8440C9"></stop></radialGradient><radialGradient id="paint1_radial" cx="0" cy="0" r="1" gradientUnits="userSpaceOnUse" gradientTransform="translate(15.1094 38.8926) rotate(-45) scale(33.637)"><stop stop-color="#00C1AE"></stop><stop offset="0.350699" stop-color="#0BA6BE"></stop><stop offset="0.663889" stop-color="#2972C6"></stop><stop offset="1" stop-color="#8440C9"></stop></radialGradient><clipPath id="clip0"><rect width="80" height="80" transform="matrix(-1 0 0 1 80 0.00012207)" fill="white"></rect></clipPath></defs></svg> 