<?xml version="1.0" encoding="UTF-8"?> <svg xmlns="http://www.w3.org/2000/svg" width="100" height="100" viewBox="0 0 100 100" fill="none"><g clip-path="url(#clip0)"><path fill-rule="evenodd" clip-rule="evenodd" d="M67.9094 73.7677L66.7079 74.7312C66.0176 75.2847 65.658 76.1525 65.7549 77.032L65.9235 78.5628C66.1045 80.2082 64.7149 81.5976 63.0698 81.4165L62.4237 81.3454V98.5351C61.0936 95.2314 58.8286 93.0556 56.2569 93.0556C53.6852 93.0556 51.42 95.2316 50.0901 98.5351V81.3454L49.4442 81.4165C47.7989 81.5976 46.4094 80.208 46.5905 78.5628L46.759 77.032C46.8559 76.1525 46.4963 75.2847 45.8061 74.7312L44.6045 73.7677C43.3131 72.7324 43.3131 70.7673 44.6045 69.732L45.8061 68.7685C46.4963 68.215 46.8559 67.3472 46.759 66.4677L46.5905 64.9369C46.4094 63.2916 47.7989 61.9021 49.4442 62.0832L50.975 62.2517C51.8545 62.3486 52.7223 61.989 53.2758 61.2988L54.2391 60.0972C55.2745 58.8058 57.2395 58.8058 58.2748 60.0972L59.2381 61.2988C59.7916 61.989 60.6594 62.3486 61.5389 62.2517L63.0698 62.0832C64.7151 61.9021 66.1045 63.2916 65.9235 64.9369L65.7549 66.4677C65.658 67.3472 66.0176 68.215 66.7079 68.7685L67.9094 69.732C69.2008 70.7673 69.2008 72.7324 67.9094 73.7677Z" fill="url(#paint0_radial)"></path><path d="M69.8948 82.9203C70.0011 82.9437 70.1071 82.9551 70.2118 82.9551C70.8841 82.9551 71.4902 82.489 71.6409 81.8052C72.2025 79.2584 74.5066 77.4099 77.1195 77.4099C77.9284 77.4099 78.5843 76.7543 78.5843 75.9451V23.9584C78.5843 23.1492 77.9284 22.4935 77.1195 22.4935C76.3105 22.4935 75.6546 23.1492 75.6546 23.9584V74.6088C72.3073 75.2006 69.5282 77.7803 68.7798 81.1742C68.6056 81.9642 69.1048 82.7459 69.8948 82.9203Z" fill="white"></path><path d="M84.5199 17.9309C84.5193 17.9143 84.5186 17.8979 84.5174 17.8814C84.5131 17.8191 84.5064 17.7572 84.4943 17.6965C84.4941 17.6957 84.4941 17.6947 84.4939 17.6939C84.4816 17.6318 84.4639 17.5715 84.4437 17.5117C84.4387 17.4965 84.4332 17.4814 84.4275 17.4664C84.4064 17.41 84.3828 17.3547 84.3549 17.3012C84.3533 17.298 84.3521 17.2949 84.3504 17.2918C84.3207 17.2359 84.2861 17.1828 84.2492 17.1311C84.2398 17.1178 84.2301 17.1049 84.2201 17.0918C84.1809 17.0404 84.1393 16.9904 84.0932 16.9441L67.5779 0.428906C67.5316 0.382617 67.4814 0.341016 67.4301 0.301563C67.4174 0.291797 67.4047 0.282422 67.3916 0.273047C67.3396 0.235938 67.2861 0.201367 67.2301 0.171484C67.2275 0.170117 67.2246 0.169141 67.2221 0.167578C67.1682 0.139258 67.1123 0.115625 67.0555 0.0943359C67.0406 0.0888672 67.0258 0.0833984 67.0107 0.0783203C66.951 0.0580078 66.8902 0.0404297 66.8279 0.0279297C66.8275 0.0279297 66.8271 0.0279297 66.827 0.0277344C66.7658 0.015625 66.7033 0.00878906 66.6406 0.00449219C66.6242 0.00332031 66.608 0.00253906 66.5916 0.00214844C66.575 0.00195312 66.5588 0 66.5422 0H21.6793C18.2596 0 15.4775 2.78223 15.4775 6.20195V12.5848C15.4775 13.3939 16.1334 14.0496 16.9424 14.0496C17.7514 14.0496 18.4072 13.3939 18.4072 12.5848V6.20195C18.4072 4.39766 19.8752 2.92969 21.6793 2.92969H65.0773V5.9375H29.9551C29.1461 5.9375 28.4902 6.59316 28.4902 7.40234C28.4902 10.4965 25.9738 13.0135 22.8809 13.0135C22.0719 13.0135 21.416 13.6691 21.416 14.4783V75.9451C21.416 76.7543 22.0719 77.41 22.8809 77.41C25.9738 77.41 28.4902 79.9264 28.4902 83.0193C28.4902 83.8285 29.1461 84.4842 29.9551 84.4842H42.6406C43.4496 84.4842 44.1055 83.8285 44.1055 83.0193C44.1055 82.2102 43.4496 81.5545 42.6406 81.5545H31.2943C30.6801 78.018 27.8824 75.2201 24.3457 74.6061V15.8176C27.8826 15.2031 30.6805 12.4049 31.2943 8.86719H65.0775V13.2432C65.0775 16.6629 67.8598 19.4449 71.2793 19.4449H81.5928V84.2213C81.5928 86.0254 80.1248 87.4934 78.3207 87.4934H68.2596C67.4506 87.4934 66.7947 88.149 66.7947 88.9582C66.7947 89.7674 67.4506 90.423 68.2596 90.423H78.3207C81.7404 90.423 84.5225 87.641 84.5225 84.2213V17.9803C84.5223 17.9637 84.5205 17.9475 84.5199 17.9309ZM71.2791 16.5154C69.4748 16.5154 68.007 15.0475 68.007 13.2434V7.41758C68.007 7.4125 68.0078 7.40762 68.0078 7.40254C68.0078 7.39746 68.007 7.39258 68.007 7.3875V5.00117L79.5211 16.5152H71.2791V16.5154Z" fill="white"></path><path d="M61.816 21.7334C62.625 21.7334 63.2809 21.0777 63.2809 20.2686C63.2809 19.4594 62.625 18.8037 61.816 18.8037H38.1836C37.3746 18.8037 36.7188 19.4594 36.7188 20.2686C36.7188 21.0777 37.3746 21.7334 38.1836 21.7334H61.816Z" fill="white"></path><path d="M30.155 35.7842C30.155 36.5934 30.8109 37.249 31.6199 37.249H68.3804C69.1894 37.249 69.8453 36.5934 69.8453 35.7842C69.8453 34.975 69.1894 34.3193 68.3804 34.3193H31.6199C30.8109 34.3193 30.155 34.975 30.155 35.7842Z" fill="white"></path><path d="M31.6199 46.6764H68.3804C69.1894 46.6764 69.8453 46.0207 69.8453 45.2115C69.8453 44.4024 69.1894 43.7467 68.3804 43.7467H31.6199C30.8109 43.7467 30.155 44.4024 30.155 45.2115C30.155 46.0207 30.8109 46.6764 31.6199 46.6764Z" fill="white"></path><path d="M31.6199 56.1041H68.3804C69.1894 56.1041 69.8453 55.4485 69.8453 54.6393C69.8453 53.8301 69.1894 53.1744 68.3804 53.1744H31.6199C30.8109 53.1744 30.155 53.8301 30.155 54.6393C30.155 55.4485 30.8109 56.1041 31.6199 56.1041Z" fill="white"></path><path d="M31.6199 65.5315H41.0609C41.8699 65.5315 42.5257 64.8758 42.5257 64.0667C42.5257 63.2575 41.8699 62.6018 41.0609 62.6018H31.6199C30.8109 62.6018 30.155 63.2575 30.155 64.0667C30.155 64.8758 30.8109 65.5315 31.6199 65.5315Z" fill="white"></path><path d="M67.3795 78.4028L67.2111 76.8719C67.1689 76.4885 67.3234 76.1155 67.6242 75.8742L68.826 74.9108C69.79 74.1379 70.343 72.986 70.3432 71.7502C70.3432 70.5145 69.7902 69.3623 68.826 68.5891L67.6242 67.6256C67.3232 67.3844 67.1689 67.0113 67.2111 66.6281L67.3795 65.0973C67.5146 63.869 67.091 62.6633 66.2174 61.7895C65.3437 60.9156 64.1381 60.492 62.9096 60.6272L61.3785 60.7955C60.9939 60.8379 60.6223 60.6834 60.3811 60.3824L59.4178 59.1809C58.6447 58.2166 57.4928 57.6637 56.257 57.6637C55.0213 57.6637 53.8691 58.2166 53.0963 59.1809L52.133 60.3822C51.8916 60.6834 51.5186 60.8367 51.1352 60.7955L49.6043 60.6272C48.3752 60.4916 47.1701 60.9158 46.2965 61.7895C45.4227 62.6633 44.999 63.8688 45.1344 65.0973L45.3027 66.6281C45.3449 67.0115 45.1904 67.3844 44.8895 67.6256L43.6877 68.5891C42.7234 69.3623 42.1707 70.5143 42.1707 71.7502C42.1707 72.9858 42.7238 74.1379 43.6879 74.9108L44.8895 75.8742C45.1904 76.1155 45.3449 76.4887 45.3027 76.8719L45.1344 78.4028C44.9992 79.6311 45.4229 80.8367 46.2965 81.7106C46.9354 82.3494 47.7521 82.7467 48.6248 82.8617V87.4936H21.6793C19.875 87.4936 18.4072 86.0256 18.4072 84.2215V18.4443C18.4072 17.6352 17.7514 16.9795 16.9424 16.9795C16.1334 16.9795 15.4775 17.6352 15.4775 18.4443V84.2215C15.4775 87.6412 18.2598 90.4233 21.6793 90.4233H48.6248V98.5352C48.6248 99.2367 49.1223 99.8399 49.8109 99.9733C50.4986 100.107 51.1863 99.7332 51.4484 99.0823C52.5986 96.2264 54.3963 94.5213 56.2576 94.5213C58.1176 94.5213 59.9146 96.2262 61.0648 99.0823C61.2914 99.6448 61.8348 100 62.4228 100C62.5152 100 62.6088 99.9912 62.7023 99.9731C63.391 99.8395 63.8885 99.2365 63.8885 98.535V82.861C64.7617 82.7459 65.5783 82.349 66.2174 81.7102C67.0912 80.8367 67.5148 79.6311 67.3795 78.4028ZM51.5547 93.6324V88.9658C51.5547 88.9633 51.5551 88.961 51.5551 88.9582C51.5551 88.9555 51.5547 88.9533 51.5547 88.9506V82.7365C51.7791 82.7979 51.9818 82.9289 52.1328 83.1172L53.0963 84.3188C53.5506 84.8852 54.1361 85.3082 54.7922 85.5621V91.7746C53.6293 92.066 52.5318 92.6994 51.5547 93.6324ZM57.7219 91.7748V85.5627C58.3779 85.309 58.9635 84.8858 59.4178 84.3192L60.3811 83.1176C60.532 82.9293 60.7346 82.7981 60.9588 82.7367V93.6321C59.9816 92.6991 58.8844 92.0656 57.7219 91.7748ZM65.7916 73.5883C64.7047 74.46 64.1467 75.8072 64.299 77.1922L64.4674 78.7231C64.5188 79.1887 64.2879 79.4967 64.1457 79.6387C64.0035 79.7807 63.6961 80.011 63.2301 79.9604L61.6988 79.7918C60.3131 79.6387 58.9666 80.1973 58.0951 81.2848L57.1318 82.4863C56.8389 82.8516 56.4578 82.9063 56.2568 82.9063C56.0559 82.9061 55.6748 82.8516 55.382 82.4863L54.4186 81.2848C53.6418 80.3158 52.4871 79.7672 51.2645 79.7672C51.1152 79.7672 50.965 79.7752 50.8144 79.7918L49.2838 79.9604C48.818 80.0121 48.5102 79.7807 48.3682 79.6387C48.2262 79.4967 47.9951 79.1885 48.0465 78.7231L48.2148 77.1922C48.3672 75.8072 47.8092 74.46 46.7221 73.5883L45.5205 72.6248C45.1551 72.3319 45.1006 71.951 45.1006 71.75C45.1006 71.549 45.1551 71.168 45.5205 70.875L46.7219 69.9117C47.8092 69.0403 48.3672 67.693 48.2148 66.3078L48.0465 64.777C47.9951 64.3113 48.226 64.0033 48.3682 63.8613C48.5104 63.7194 48.8182 63.4877 49.2838 63.5397L50.8144 63.708C52.199 63.8608 53.5467 63.3026 54.4186 62.2152L55.3818 61.0137C55.6748 60.6485 56.0559 60.5938 56.2568 60.5938C56.4578 60.5938 56.8389 60.6485 57.1318 61.0137L58.0951 62.2152C58.9668 63.3024 60.3135 63.8594 61.699 63.708L63.2299 63.5397C63.6953 63.4875 64.0033 63.7194 64.1455 63.8613C64.2877 64.0035 64.5186 64.3115 64.4672 64.777L64.2988 66.3078C64.1465 67.693 64.7045 69.0401 65.7916 69.9115L66.9932 70.875C67.3588 71.168 67.4133 71.549 67.4133 71.75C67.4133 71.951 67.3586 72.3319 66.9934 72.6248L65.7916 73.5883Z" fill="white"></path><path d="M56.257 64.3954C52.2016 64.3954 48.9023 67.6948 48.9023 71.7501C48.9023 75.8053 52.2018 79.1048 56.257 79.1048C60.3123 79.1048 63.6117 75.8053 63.6117 71.7501C63.6117 67.6948 60.3123 64.3954 56.257 64.3954ZM56.257 76.1753C53.817 76.1753 51.832 74.1903 51.832 71.7503C51.832 69.3102 53.8172 67.3253 56.257 67.3253C58.6969 67.3253 60.682 69.3102 60.682 71.7503C60.682 74.1903 58.6969 76.1753 56.257 76.1753Z" fill="white"></path></g><defs><radialGradient id="paint0_radial" cx="0" cy="0" r="1" gradientUnits="userSpaceOnUse" gradientTransform="translate(43.636 98.5351) rotate(-57.3582) scale(46.7977 42.5105)"><stop stop-color="#B3AD00"></stop><stop offset="0.479167" stop-color="#FBBE3A"></stop><stop offset="0.885417" stop-color="#FB38FA"></stop><stop offset="0.9999" stop-color="#6D41FF"></stop><stop offset="1" stop-color="#18EEEC"></stop></radialGradient><clipPath id="clip0"><rect width="100" height="100" fill="white"></rect></clipPath></defs></svg> 