<?xml version="1.0" encoding="UTF-8"?> <svg xmlns="http://www.w3.org/2000/svg" width="100" height="100" viewBox="0 0 100 100" fill="none"><path fill-rule="evenodd" clip-rule="evenodd" d="M65.8004 61.4018C65.808 61.4019 65.8154 61.4018 65.8226 61.4018L65.833 61.4018H65.8004Z" fill="url(#paint0_radial)"></path><path d="M77.5199 29.7236C77.5199 36.0867 74.1031 42.0287 68.6031 45.2312L62.8547 48.5783C62.2539 48.9281 61.8844 49.5709 61.8844 50.2662V57.5019L53.7893 57.5154H53.7875C53.6947 57.5154 53.6109 57.5019 53.5363 57.4805V50.2664C53.5363 49.5711 53.1668 48.9283 52.566 48.5785L46.8176 45.2314C41.3174 42.0289 37.9006 36.0867 37.9006 29.7238V5.90625H77.5197L77.5199 29.7236Z" fill="url(#paint1_radial)"></path><path fill-rule="evenodd" clip-rule="evenodd" d="M88.6258 4.97266H81.4262V3.95312C81.4262 2.87441 80.5518 2 79.473 2H35.9477C34.8689 2 33.9945 2.87441 33.9945 3.95312V4.97266H26.7949C25.7162 4.97266 24.8418 5.84707 24.8418 6.92578V20.2678C24.8418 25.6309 28.8449 30.0764 34.0201 30.7732C34.3219 36.99 37.2904 42.7889 42.0701 46.6814C42.0701 46.6814 43.4581 47.8463 45.5273 49.8691C47.5966 51.892 48.9787 51.4534 48.9787 55.9217C48.9787 60.3899 48.9787 56.6135 48.9787 56.6135C48.9787 57.8992 49.4799 59.1076 50.39 60.016C51.2982 60.9227 52.5045 61.4217 53.7875 61.4217H53.7961L65.7457 61.4018L65.9928 57.5029C65.9303 57.4977 65.8689 57.4955 65.8076 57.4959H65.7908V51.3894L70.5689 48.6072C76.9627 44.8844 81.0441 38.1207 81.4008 30.7734C86.5758 30.0762 90.5789 25.6307 90.5789 20.2678V6.92578C90.5789 5.84707 89.7045 4.97266 88.6258 4.97266ZM28.748 20.2678C28.748 23.4619 30.9971 26.1408 33.9945 26.8043V8.87891H28.748V20.2678ZM68.6031 45.2312C74.1031 42.0287 77.5199 36.0867 77.5199 29.7236L77.5197 5.90625H37.9006V29.7238C37.9006 36.0867 41.3174 42.0289 46.8176 45.2314L52.566 48.5785C53.1668 48.9283 53.5363 49.5711 53.5363 50.2664V57.4805C53.6109 57.5019 53.6947 57.5154 53.7875 57.5154H53.7893L61.8844 57.5019V50.2662C61.8844 49.5709 62.2539 48.9281 62.8547 48.5783L68.6031 45.2312ZM81.4262 26.8043C84.4236 26.1408 86.6727 23.4619 86.6727 20.2678V8.87891H81.4262V26.8043Z" fill="white"></path><path fill-rule="evenodd" clip-rule="evenodd" d="M65.8004 61.4018C65.808 61.4019 65.8154 61.4018 65.8226 61.4018L65.833 61.4018H65.8004Z" fill="white"></path><path d="M52.9435 36.4508C52.2674 36.4508 51.5998 36.2385 51.0297 35.8241C50.1037 35.151 49.6049 34.068 49.6951 32.927L49.9904 29.1864L47.5515 26.3338C46.8074 25.4633 46.5744 24.2936 46.9283 23.2045C47.2822 22.1155 48.1582 21.3061 49.2719 21.0393L52.924 20.1639L54.8859 16.9629C55.484 15.9872 56.5242 15.4045 57.6689 15.4045C58.8135 15.4043 59.8541 15.987 60.4521 16.9629L62.4142 20.1639L66.0664 21.0393C67.1799 21.3063 68.056 22.1157 68.4099 23.2047C68.7637 24.2938 68.5307 25.4635 67.7865 26.3338L65.3476 29.1864L65.643 32.9272C65.733 34.068 65.2342 35.151 64.3082 35.8241C63.382 36.4973 62.1976 36.6373 61.1398 36.1995L57.6691 34.762L54.1986 36.1995C53.7912 36.3678 53.3658 36.4508 52.9435 36.4508ZM57.6685 30.6948C57.9226 30.6948 58.1767 30.7444 58.416 30.8434L61.6658 32.1895L61.3892 28.6866C61.3486 28.1698 61.5148 27.6577 61.8519 27.2635L64.1349 24.5934L60.7164 23.7739C60.2125 23.653 59.7771 23.337 59.5064 22.8952L57.6687 19.8971L55.8312 22.8952C55.5605 23.337 55.1252 23.653 54.6213 23.7739L51.2027 24.5934L53.4857 27.2635C53.8226 27.6577 53.9891 28.1696 53.9482 28.6866L53.6719 32.1895L56.9215 30.8436C57.1605 30.7444 57.4146 30.6948 57.6685 30.6948Z" fill="white"></path><path fill-rule="evenodd" clip-rule="evenodd" d="M83.5614 64.1964C83.5614 60.813 80.6529 58.0604 77.0778 58.0604H64.9775H61.4643H56.0061C55.111 58.0604 54.3852 58.7473 54.3852 59.5944C54.3852 60.4415 55.111 61.1284 56.0061 61.1284H77.0778C78.8653 61.1284 80.3196 62.5047 80.3196 64.1964C80.3196 65.8909 78.8683 67.2645 77.0778 67.2645H68.9733C68.0782 67.2645 67.3524 67.9514 67.3524 68.7985C67.3524 69.6455 68.0782 70.3325 68.9733 70.3325H73.836C75.6235 70.3325 77.0778 71.7088 77.0778 73.4005C77.0778 75.0949 75.6264 76.4685 73.836 76.4685H65.7315C64.8364 76.4685 64.1106 77.1554 64.1106 78.0025C64.1106 78.8496 64.8364 79.5365 65.7315 79.5365H70.5942C72.3605 79.5365 73.836 80.8719 73.836 82.6045C73.836 84.299 72.3847 85.6725 70.5942 85.6725H62.4897C61.5946 85.6725 60.8688 86.3595 60.8688 87.2066C60.8688 88.0536 61.5946 88.7406 62.4897 88.7406H67.3524C69.1399 88.7406 70.5942 90.1169 70.5942 91.8086C70.5942 93.5003 69.1399 94.8766 67.3524 94.8766H49.9212C42.7557 94.8766 39.9571 94.1849 34.3817 92.8069C33.5649 92.605 32.669 92.3837 31.6926 92.1481V63.8935C39.2632 62.6624 46.7193 60.2253 49.3509 57.5937V53.2078C44.5263 57.5937 38.8246 59.3481 31.2867 60.8245C30.5356 59.1994 28.821 58.0604 26.8299 58.0604H10.6209C9.72584 58.0604 9 58.7473 9 59.5944V96.4106C9 97.2577 9.72584 97.9446 10.6209 97.9446H26.8299C28.8077 97.9446 30.5124 96.8206 31.2713 95.2127C32.0939 95.4124 32.8575 95.6011 33.5625 95.7754C39.2218 97.1742 42.3393 97.9446 49.9212 97.9446H67.3524C70.9275 97.9446 73.836 95.192 73.836 91.8086C73.836 90.547 73.4313 89.3735 72.7387 88.3972C75.2426 87.5684 77.0778 85.3042 77.0778 82.6045C77.0778 81.3476 76.683 80.1702 75.9925 79.1895C78.4854 78.3593 80.3196 76.1003 80.3196 73.4005C80.3196 72.1389 79.9149 70.9654 79.2223 69.9892C81.7262 69.1603 83.5614 66.8961 83.5614 64.1964ZM26.8299 94.8766C27.7237 94.8766 28.4508 94.1884 28.4508 93.3426V62.6624C28.4508 61.8166 27.7237 61.1284 26.8299 61.1284H12.2418V94.8766H26.8299Z" fill="white"></path><path d="M77.0778 67.2645C73.6011 67.2645 72.7724 67.2645 68.9733 67.2645M77.0778 67.2645C78.8683 67.2645 80.3196 65.8909 80.3196 64.1964C80.3196 62.5047 78.8653 61.1284 77.0778 61.1284M77.0778 67.2645H68.9733M68.9733 67.2645C68.0782 67.2645 67.3524 67.9514 67.3524 68.7985C67.3524 69.6455 68.0782 70.3325 68.9733 70.3325H73.836C75.6235 70.3325 77.0778 71.7088 77.0778 73.4005C77.0778 75.0949 75.6265 76.4685 73.836 76.4685H65.7315C64.8364 76.4685 64.1106 77.1554 64.1106 78.0025C64.1106 78.8496 64.8364 79.5365 65.7315 79.5365H70.5942C72.3605 79.5365 73.836 80.8719 73.836 82.6045C73.836 84.299 72.3847 85.6725 70.5942 85.6725M70.5942 85.6725C67.1175 85.6725 66.2888 85.6725 62.4897 85.6725M70.5942 85.6725H62.4897M62.4897 85.6725C61.5946 85.6725 60.8688 86.3595 60.8688 87.2066C60.8688 88.0536 61.5946 88.7406 62.4897 88.7406H67.3524C69.1399 88.7406 70.5942 90.1169 70.5942 91.8086C70.5942 93.5003 69.1399 94.8766 67.3524 94.8766H49.9212C42.7557 94.8766 39.9571 94.1849 34.3817 92.8069C33.5649 92.605 32.669 92.3837 31.6926 92.1481V63.8935C39.2632 62.6624 46.7193 60.2253 49.3509 57.5937V53.2078C44.5263 57.5937 38.8246 59.3481 31.2867 60.8245C30.5356 59.1994 28.821 58.0604 26.8299 58.0604H10.6209C9.72584 58.0604 9 58.7473 9 59.5944V96.4106C9 97.2577 9.72584 97.9446 10.6209 97.9446H26.8299C28.8077 97.9446 30.5124 96.8206 31.2713 95.2127C32.0939 95.4124 32.8575 95.6011 33.5625 95.7754C39.2218 97.1742 42.3393 97.9446 49.9212 97.9446H67.3524C70.9275 97.9446 73.836 95.192 73.836 91.8086C73.836 90.547 73.4313 89.3735 72.7387 88.3972C75.2426 87.5684 77.0778 85.3042 77.0778 82.6045C77.0778 81.3476 76.683 80.1702 75.9925 79.1895C78.4854 78.3593 80.3196 76.1003 80.3196 73.4005C80.3196 72.1389 79.9149 70.9654 79.2223 69.9892C81.7262 69.1603 83.5614 66.8961 83.5614 64.1964C83.5614 60.813 80.6529 58.0604 77.0778 58.0604H64.9775H61.4643H56.0061C55.111 58.0604 54.3852 58.7473 54.3852 59.5944C54.3852 60.4415 55.111 61.1284 56.0061 61.1284M56.0061 61.1284C57.138 61.1284 75.2303 61.1284 77.0778 61.1284M56.0061 61.1284H77.0778M28.4508 93.3426C28.4508 94.1884 27.7237 94.8766 26.8299 94.8766H12.2418V61.1284H26.8299C27.7237 61.1284 28.4508 61.8166 28.4508 62.6624V93.3426Z" stroke="white" stroke-width="0.75"></path><path d="M23.0351 67.2429C22.0667 67.2429 21.2808 68.0289 21.2808 68.9973C21.2808 69.9657 22.0667 70.7517 23.0351 70.7517C24.0036 70.7517 24.7895 69.9657 24.7895 68.9973C24.7895 68.0289 24.0036 67.2429 23.0351 67.2429Z" fill="white"></path><path d="M23.0351 73.3833C22.0664 73.3833 21.2808 74.0904 21.2808 74.9622V87.5938C21.2808 88.4657 22.0664 89.1728 23.0351 89.1728C24.0039 89.1728 24.7895 88.4657 24.7895 87.5938V74.9622C24.7895 74.0904 24.0039 73.3833 23.0351 73.3833Z" fill="white"></path><defs><radialGradient id="paint0_radial" cx="0" cy="0" r="1" gradientUnits="userSpaceOnUse" gradientTransform="translate(24.8418 61.4217) rotate(-42.1113) scale(88.6132 88.1631)"><stop stop-color="#B3AD00"></stop><stop offset="0.479167" stop-color="#FBBE3A"></stop><stop offset="0.885417" stop-color="#FB38FA"></stop><stop offset="0.9999" stop-color="#6D41FF"></stop><stop offset="1" stop-color="#18EEEC"></stop></radialGradient><radialGradient id="paint1_radial" cx="0" cy="0" r="1" gradientUnits="userSpaceOnUse" gradientTransform="translate(24.8418 61.4217) rotate(-42.1113) scale(88.6132 88.1631)"><stop stop-color="#B3AD00"></stop><stop offset="0.479167" stop-color="#FBBE3A"></stop><stop offset="0.885417" stop-color="#FB38FA"></stop><stop offset="0.9999" stop-color="#6D41FF"></stop><stop offset="1" stop-color="#18EEEC"></stop></radialGradient></defs></svg> 