<?xml version="1.0" encoding="UTF-8"?> <svg xmlns="http://www.w3.org/2000/svg" width="100" height="100" viewBox="0 0 100 100" fill="none"><g clip-path="url(#clip0)"><path d="M50.1708 72.2343H33.2036C32.1251 72.2343 31.2505 71.3596 31.2505 70.2811C31.2505 69.2026 32.1249 68.328 33.2036 68.328H50.1708C51.2493 68.328 52.1239 69.2026 52.1239 70.2811C52.1239 71.3596 51.2493 72.2343 50.1708 72.2343Z" fill="white"></path><path d="M67.2094 72.2343H59.2422C58.1637 72.2343 57.2891 71.3596 57.2891 70.2811C57.2891 69.2026 58.1635 68.328 59.2422 68.328H67.2094C68.2879 68.328 69.1625 69.2026 69.1625 70.2811C69.1625 71.3596 68.2879 72.2343 67.2094 72.2343Z" fill="white"></path><path d="M61.336 79.1405H38.6636C37.5851 79.1405 36.7104 78.2659 36.7104 77.1874C36.7104 76.1089 37.5849 75.2343 38.6636 75.2343H61.336C62.4145 75.2343 63.2891 76.1089 63.2891 77.1874C63.2891 78.2659 62.4147 79.1405 61.336 79.1405Z" fill="white"></path><path d="M23.5753 97.913C22.0742 97.913 20.591 97.4408 19.322 96.5187C17.2427 95.008 16.1339 92.5771 16.3562 90.0164L18.5701 64.5007L1.78375 45.1599C0.0989808 43.2189 -0.43266 40.6007 0.361676 38.1564C1.15562 35.7121 3.12457 33.9066 5.62808 33.3265L30.5753 27.5478L43.7794 5.60366C45.1046 3.40151 47.4302 2.08667 50 2.08667C52.5699 2.08667 54.8953 3.40132 56.2205 5.60366L69.4246 27.5478L94.3718 33.3265C96.8753 33.9066 98.8439 35.7121 99.6382 38.1564C100.433 40.6009 99.9011 43.2191 98.2164 45.1599L81.4298 64.5007L83.6437 90.0166C83.866 92.5771 82.7572 95.008 80.6779 96.5187C78.5986 98.0293 75.9445 98.3324 73.5787 97.3298L50 87.339L26.4212 97.33C25.4994 97.7207 24.5336 97.913 23.5753 97.913ZM50 5.99312C48.8127 5.99312 47.7384 6.60054 47.1263 7.61792L33.4955 30.2708C33.2228 30.724 32.7779 31.0472 32.2628 31.1666L6.50953 37.1322C5.35289 37.4001 4.44332 38.2343 4.07652 39.3636C3.70972 40.4929 3.95523 41.7029 4.73355 42.5996L22.0625 62.5654C22.4091 62.9648 22.5789 63.4876 22.5334 64.0144L20.2478 90.3543C20.1451 91.5377 20.6574 92.6607 21.6179 93.3586C22.5781 94.0562 23.8041 94.1966 24.8972 93.7332L49.2379 83.4195C49.725 83.213 50.2746 83.213 50.7617 83.4195L75.1023 93.7332C76.1953 94.1962 77.4211 94.0562 78.3816 93.3586C79.3423 92.6607 79.8546 91.5376 79.7517 90.3544L77.4662 64.0144C77.4207 63.4876 77.5904 62.9648 77.9371 62.5654L95.2662 42.5996C96.0445 41.7027 96.29 40.4931 95.923 39.3636C95.556 38.2343 94.6464 37.4001 93.49 37.1322L67.7367 31.1667C67.2214 31.0474 66.7767 30.7242 66.5041 30.271L52.8732 7.61812C52.2613 6.60054 51.1873 5.99312 50 5.99312Z" fill="white"></path><path d="M49.5327 44.0149C46.636 44.0149 44.2788 41.6585 44.2788 38.7614V37.3348H52.6046C53.3721 37.3348 54.107 37.194 54.7862 36.9382V38.7612C54.7864 41.6581 52.4294 44.0149 49.5327 44.0149Z" fill="url(#paint0_radial)"></path><path d="M52.7317 48.0439L49.5325 51.2431L46.3333 48.0439H52.7317Z" fill="url(#paint1_radial)"></path><path d="M35.0282 57.1503C35.0282 53.1771 37.5872 49.7922 41.1428 48.5515L48.1079 55.5166C48.5013 55.9098 49.0168 56.1066 49.5323 56.1066C50.0478 56.1066 50.5635 55.9098 50.9567 55.5166L57.9218 48.5515C61.4772 49.7922 64.0361 53.1771 64.0361 57.1503V59.4656H35.0282V57.1503Z" fill="url(#paint2_radial)"></path><path d="M44.2786 32.1901C44.2788 30.2498 45.8573 28.6714 47.7975 28.6714H54.786V31.1247C54.786 32.3277 53.8074 33.3063 52.6044 33.3063H44.2786V32.1901Z" fill="url(#paint3_radial)"></path><path fill-rule="evenodd" clip-rule="evenodd" d="M67.9391 62.1766C68.0193 61.9592 68.0654 61.7254 68.0654 61.48V57.1501C68.0654 50.6312 63.2907 45.2086 57.0556 44.1894C58.1611 42.6617 58.8152 40.7869 58.8152 38.7612V26.6566C58.8152 25.5441 57.9133 24.6422 56.8008 24.6422H47.7979C43.636 24.6422 40.2502 28.028 40.2502 32.1899V38.7614C40.2502 40.7871 40.9043 42.6617 42.0098 44.1896C35.7745 45.2086 31 50.6312 31 57.1503V61.4802C31 61.7254 31.0459 61.9594 31.1263 62.1768C31.3761 62.7976 31.6703 63.0554 32.4115 63.4025C32.6018 63.4622 32.8043 63.4944 33.0142 63.4944H66.0508C66.2607 63.4944 66.4632 63.4622 66.6535 63.4025C67.3505 63.1302 67.6258 62.8716 67.9391 62.1766ZM44.2788 38.7614C44.2788 41.6585 46.636 44.0149 49.5327 44.0149C52.4294 44.0149 54.7864 41.6581 54.7862 38.7612V36.9382C54.107 37.194 53.3721 37.3348 52.6046 37.3348H44.2788V38.7614ZM49.5325 51.2431L52.7317 48.0439H46.3333L49.5325 51.2431ZM47.7975 28.6714C45.8573 28.6714 44.2788 30.2498 44.2786 32.1901V33.3063H52.6044C53.8074 33.3063 54.786 32.3277 54.786 31.1247V28.6714H47.7975ZM41.1428 48.5515C37.5872 49.7922 35.0282 53.1771 35.0282 57.1503V59.4656H64.0361V57.1503C64.0361 53.1771 61.4772 49.7922 57.9218 48.5515L50.9567 55.5166C50.5635 55.9098 50.0478 56.1066 49.5323 56.1066C49.0168 56.1066 48.5013 55.9098 48.1079 55.5166L41.1428 48.5515Z" fill="white"></path></g><defs><radialGradient id="paint0_radial" cx="0" cy="0" r="1" gradientUnits="userSpaceOnUse" gradientTransform="translate(31 63.4944) rotate(-46.3482) scale(53.6967 53.6373)"><stop stop-color="#B3AD00"></stop><stop offset="0.479167" stop-color="#FBBE3A"></stop><stop offset="0.885417" stop-color="#FB38FA"></stop><stop offset="0.9999" stop-color="#6D41FF"></stop><stop offset="1" stop-color="#18EEEC"></stop></radialGradient><radialGradient id="paint1_radial" cx="0" cy="0" r="1" gradientUnits="userSpaceOnUse" gradientTransform="translate(31 63.4944) rotate(-46.3482) scale(53.6967 53.6373)"><stop stop-color="#B3AD00"></stop><stop offset="0.479167" stop-color="#FBBE3A"></stop><stop offset="0.885417" stop-color="#FB38FA"></stop><stop offset="0.9999" stop-color="#6D41FF"></stop><stop offset="1" stop-color="#18EEEC"></stop></radialGradient><radialGradient id="paint2_radial" cx="0" cy="0" r="1" gradientUnits="userSpaceOnUse" gradientTransform="translate(31 63.4944) rotate(-46.3482) scale(53.6967 53.6373)"><stop stop-color="#B3AD00"></stop><stop offset="0.479167" stop-color="#FBBE3A"></stop><stop offset="0.885417" stop-color="#FB38FA"></stop><stop offset="0.9999" stop-color="#6D41FF"></stop><stop offset="1" stop-color="#18EEEC"></stop></radialGradient><radialGradient id="paint3_radial" cx="0" cy="0" r="1" gradientUnits="userSpaceOnUse" gradientTransform="translate(31 63.4944) rotate(-46.3482) scale(53.6967 53.6373)"><stop stop-color="#B3AD00"></stop><stop offset="0.479167" stop-color="#FBBE3A"></stop><stop offset="0.885417" stop-color="#FB38FA"></stop><stop offset="0.9999" stop-color="#6D41FF"></stop><stop offset="1" stop-color="#18EEEC"></stop></radialGradient><clipPath id="clip0"><rect width="100" height="100" fill="white"></rect></clipPath></defs></svg> 