<?xml version="1.0" encoding="UTF-8"?> <svg xmlns="http://www.w3.org/2000/svg" width="100" height="100" viewBox="0 0 100 100" fill="none"><path d="M38.3595 19.2217V15.2756C38.3595 10.924 34.8192 7.38359 30.4675 7.38359H28.4944V1.46484H20.6024V7.38379H18.6298C14.2782 7.38379 10.7378 10.924 10.7378 15.2758V25.1406C10.7378 29.4922 14.278 33.0326 18.6298 33.0326H30.4677V42.8975H18.6298V38.9516H10.738V42.8975C10.738 47.249 14.2782 50.7895 18.63 50.7895H20.603V56.7084H28.495V50.7895H30.4681C34.8196 50.7895 38.3601 47.2492 38.3601 42.8975V33.0326C38.3601 28.6811 34.8198 25.1406 30.4681 25.1406H18.6302V15.2756H30.4681V19.2215H38.3595V19.2217Z" fill="white"></path><path fill-rule="evenodd" clip-rule="evenodd" d="M63.0215 25.1406L80.7781 1.46484L98.535 25.1406H90.6432V92.6162H70.9133V25.1406H63.0215ZM40.1353 53.1569H59.8649V92.6164H40.1353V53.1569ZM9.35645 66.9675H29.0861V92.6162H9.35645V66.9675Z" fill="url(#paint0_radial)"></path><path d="M49.9619 25.0117L52.565 23.7102L49.9619 22.4086C49.3352 22.0953 48.8453 21.5629 48.5852 20.9123L46.8436 16.5582L45.102 20.9123C44.8418 21.5629 44.3518 22.0953 43.7252 22.4086L41.1221 23.7102L43.7252 25.0117C44.352 25.325 44.8418 25.8574 45.102 26.508L46.8436 30.8621L48.5852 26.508C48.8453 25.8574 49.3352 25.325 49.9619 25.0117Z" fill="white"></path><path d="M58.84 9.91836L61.4432 8.6168L58.84 7.31523C58.2133 7.00195 57.7234 6.46953 57.4633 5.81894L55.7217 1.46484L53.9801 5.81894C53.7199 6.46953 53.2299 7.00195 52.6033 7.31523L50 8.6168L52.6031 9.91836C53.2299 10.2316 53.7197 10.7641 53.9799 11.4146L55.7215 15.7688L57.4631 11.4146C57.7234 10.7643 58.2135 10.2318 58.84 9.91836Z" fill="white"></path><path d="M18.6298 52.2541H19.138V56.7082C19.138 57.5172 19.7938 58.173 20.6028 58.173H28.4946C29.3036 58.173 29.9595 57.5172 29.9595 56.7082V52.2541H30.4677C35.6271 52.2541 39.8243 48.0566 39.8243 42.8975V33.0326C39.8243 27.8732 35.6269 23.676 30.4677 23.676H20.0946V16.7404H29.0028V19.2215C29.0028 20.0305 29.6587 20.6863 30.4677 20.6863H38.3595C39.1685 20.6863 39.8243 20.0305 39.8243 19.2215V15.2756C39.8243 10.1162 35.6269 5.91875 30.4677 5.91875H29.9595V1.46484C29.9595 0.655859 29.3036 0 28.4946 0H20.6028C19.7938 0 19.138 0.655859 19.138 1.46484V5.91894H18.6298C13.4704 5.91894 9.27295 10.1164 9.27295 15.2758V25.1406C9.27295 30.3 13.4704 34.4973 18.6298 34.4973H29.0028V41.4324H20.0946V38.9512C20.0946 38.1422 19.4388 37.4863 18.6298 37.4863H10.738C9.929 37.4863 9.27314 38.1422 9.27314 38.9512V42.8973C9.27314 48.0566 13.4704 52.2541 18.6298 52.2541ZM12.2028 40.4162H17.1651V42.8975C17.1651 43.7064 17.821 44.3623 18.63 44.3623H30.4679C31.2769 44.3623 31.9327 43.7064 31.9327 42.8975V33.0326C31.9327 32.2236 31.2769 31.5678 30.4679 31.5678H18.63C15.086 31.5678 12.2028 28.6846 12.2028 25.1408V15.2756C12.2028 11.7316 15.086 8.84844 18.63 8.84844H20.603C21.412 8.84844 22.0679 8.19258 22.0679 7.38359V2.92969H27.03V7.38379C27.03 8.19277 27.6858 8.84863 28.4948 8.84863H30.4679C34.0118 8.84863 36.8948 11.7318 36.8948 15.2758V17.7568H31.9327V15.2756C31.9327 14.4666 31.2769 13.8107 30.4679 13.8107H18.63C17.821 13.8107 17.1651 14.4666 17.1651 15.2756V25.1404C17.1651 25.9494 17.821 26.6053 18.63 26.6053H30.4679C34.0118 26.6053 36.8948 29.4885 36.8948 33.0322V42.8971C36.8948 46.441 34.0116 49.324 30.4679 49.324H28.4948C27.6858 49.324 27.03 49.9799 27.03 50.7889V55.243H22.0679V50.7889C22.0679 49.9799 21.412 49.324 20.603 49.324H18.6298C15.0858 49.324 12.2026 46.4408 12.2026 42.8971V40.4162H12.2028Z" fill="white"></path><path d="M98.5352 91.1514H92.108V39.5646C92.108 38.7557 91.4521 38.0998 90.6432 38.0998C89.8342 38.0998 89.1783 38.7557 89.1783 39.5646V91.1514H72.3783V25.1406C72.3783 24.3316 71.7225 23.6758 70.9135 23.6758H65.9514L80.7783 3.90625L95.6055 23.6758H90.6432C89.8342 23.6758 89.1783 24.3316 89.1783 25.1406V32.7143C89.1783 33.5232 89.8342 34.1791 90.6432 34.1791C91.4521 34.1791 92.108 33.5232 92.108 32.7143V26.6055H98.5352C99.09 26.6055 99.5973 26.292 99.8453 25.7957C100.094 25.2994 100.04 24.7055 99.707 24.2617L81.9502 0.585938C81.6734 0.216992 81.2394 0 80.7783 0C80.3172 0 79.8832 0.216992 79.6064 0.585938L61.8496 24.2617C61.5166 24.7055 61.4631 25.2994 61.7113 25.7957C61.9594 26.292 62.4666 26.6055 63.0215 26.6055H69.4484V91.1516H61.3295V80.4969C61.3295 79.6879 60.6736 79.032 59.8646 79.032C59.0557 79.032 58.3998 79.6879 58.3998 80.4969V91.1516H41.5996V54.6217H58.3998V73.6502C58.3998 74.4592 59.0557 75.115 59.8646 75.115C60.6736 75.115 61.3295 74.4592 61.3295 73.6502V53.1568C61.3295 52.3479 60.6736 51.692 59.8646 51.692H40.1352C39.3262 51.692 38.6703 52.3479 38.6703 53.1568V91.1516H30.5514V80.148C30.5514 79.3391 29.8955 78.6832 29.0865 78.6832C28.2775 78.6832 27.6217 79.3391 27.6217 80.148V91.1516H10.8217V68.4324H27.6217V73.3051C27.6217 74.1141 28.2775 74.7699 29.0865 74.7699C29.8955 74.7699 30.5514 74.1141 30.5514 73.3051V66.9676C30.5514 66.1586 29.8955 65.5027 29.0865 65.5027H9.35684C8.54785 65.5027 7.89199 66.1586 7.89199 66.9676V91.1514H1.46484C0.655859 91.1514 0 91.8072 0 92.6162V98.5352C0 99.3441 0.655859 100 1.46484 100H98.5352C99.3441 100 100 99.3441 100 98.5352V92.6162C100 91.8072 99.3441 91.1514 98.5352 91.1514ZM97.0703 97.0703H2.92969V94.0811H97.0703V97.0703Z" fill="white"></path><path d="M40.4662 25.0203L43.0695 26.3219C43.3756 26.4748 43.6141 26.734 43.7412 27.052L45.4828 31.4061C45.7053 31.9621 46.2438 32.3268 46.8428 32.3268C47.4418 32.3268 47.9805 31.9621 48.2027 31.4061L49.9445 27.0518C50.0715 26.734 50.3102 26.4748 50.616 26.3219L53.2193 25.0203C53.7156 24.7721 54.0291 24.2649 54.0291 23.7102C54.0291 23.1555 53.7156 22.6481 53.2193 22.4L50.6162 21.0985C50.3102 20.9453 50.0715 20.6862 49.9443 20.3682L48.2027 16.0141C47.9803 15.458 47.4418 15.0934 46.8428 15.0934C46.2438 15.0934 45.7051 15.458 45.4828 16.0141L43.741 20.3684C43.6141 20.6862 43.3754 20.9455 43.0693 21.0985L40.466 22.4C39.9697 22.6483 39.6562 23.1555 39.6562 23.7102C39.6562 24.2649 39.9699 24.7723 40.4662 25.0203ZM46.4613 21.4563L46.843 20.5022L47.2246 21.4561C47.616 22.4348 48.3488 23.2344 49.2893 23.71C48.3488 24.1854 47.6162 24.9852 47.2248 25.9639L46.8432 26.918L46.4615 25.9641C46.0701 24.9852 45.3373 24.1854 44.3969 23.71C45.3373 23.2348 46.0699 22.435 46.4613 21.4563Z" fill="white"></path><path d="M49.3447 9.92695L51.948 11.2287C52.2541 11.3816 52.4928 11.641 52.6197 11.9588L54.3613 16.3129C54.5838 16.8689 55.1223 17.2336 55.7213 17.2336C56.3203 17.2336 56.859 16.8689 57.0812 16.3127L58.8229 11.9588C58.95 11.641 59.1887 11.3816 59.4945 11.2287H59.4947L62.0978 9.92695C62.5941 9.67871 62.9076 9.17168 62.9076 8.6168C62.9076 8.06191 62.5941 7.55469 62.0978 7.30664L59.4945 6.00488C59.1885 5.85195 58.9498 5.59258 58.8229 5.2748L57.0812 0.920703C56.8592 0.364648 56.3205 0 55.7215 0C55.1227 0 54.5838 0.364648 54.3615 0.920703L52.6199 5.2748C52.4928 5.59258 52.2541 5.85195 51.948 6.00508L49.3449 7.30664C48.8486 7.55469 48.5352 8.06191 48.5352 8.6168C48.5352 9.17168 48.8484 9.67891 49.3447 9.92695ZM55.3398 6.36309L55.7215 5.40918L56.1031 6.36309C56.4947 7.34199 57.2275 8.1416 58.1678 8.61699C57.2275 9.09219 56.4947 9.89199 56.1029 10.8709L55.7215 11.8248L55.3398 10.8707C54.9482 9.89199 54.2154 9.09219 53.2752 8.61699C54.2154 8.1416 54.9482 7.3418 55.3398 6.36309Z" fill="white"></path><defs><radialGradient id="paint0_radial" cx="0" cy="0" r="1" gradientUnits="userSpaceOnUse" gradientTransform="translate(9.35645 92.6164) rotate(-45.6269) scale(127.52 127.49)"><stop stop-color="#B3AD00"></stop><stop offset="0.479167" stop-color="#FBBE3A"></stop><stop offset="0.885417" stop-color="#FB38FA"></stop><stop offset="0.9999" stop-color="#6D41FF"></stop><stop offset="1" stop-color="#18EEEC"></stop></radialGradient></defs></svg> 