<?xml version="1.0" encoding="UTF-8"?> <svg xmlns="http://www.w3.org/2000/svg" width="100" height="100" viewBox="0 0 100 100" fill="none"><path d="M50.0002 82.8292C68.1313 82.8292 82.8295 68.1311 82.8295 50C82.8295 31.8688 68.1313 17.1707 50.0002 17.1707C31.8691 17.1707 17.1709 31.8688 17.1709 50C17.1709 68.1311 31.8691 82.8292 50.0002 82.8292Z" fill="url(#paint0_radial)"></path><path d="M50 84.4492C68.9955 84.4492 84.4492 68.9955 84.4492 50C84.4492 31.0045 68.9955 15.5508 50 15.5508C31.0045 15.5508 15.5508 31.0045 15.5508 50C15.5508 68.9955 31.0045 84.4492 50 84.4492ZM50 18.7904C67.209 18.7904 81.2096 32.7908 81.2096 50C81.2096 67.2092 67.209 81.2096 50 81.2096C32.791 81.2096 18.7904 67.209 18.7904 50C18.7904 32.791 32.791 18.7904 50 18.7904Z" fill="white"></path><path d="M39.525 58.7472C39.525 57.8526 38.7998 57.1272 37.9051 57.1272C37.0103 57.1272 36.2852 57.8524 36.2852 58.7472C36.2852 63.1331 41.4807 66.6347 48.3803 67.1128V69.0063C48.3803 69.9009 49.1055 70.6263 50.0002 70.6263C50.8949 70.6263 51.6201 69.9011 51.6201 69.0063V67.1128C58.5197 66.6347 63.7152 63.1331 63.7152 58.7472C63.7152 52.8714 58.1283 50.5786 51.6201 48.7632V36.1341C56.9127 36.5595 60.4754 39.0218 60.4754 41.2526C60.4754 42.1472 61.2006 42.8726 62.0953 42.8726C62.99 42.8726 63.7152 42.1474 63.7152 41.2526C63.7152 36.8667 58.5197 33.3651 51.6201 32.887V30.9935C51.6201 30.0989 50.8949 29.3735 50.0002 29.3735C49.1055 29.3735 48.3803 30.0987 48.3803 30.9935V32.887C41.4807 33.3651 36.2852 36.8667 36.2852 41.2526C36.2852 47.1284 41.8721 49.4212 48.3803 51.2366V63.8657C43.0877 63.4403 39.525 60.978 39.525 58.7472ZM60.4754 58.7472C60.4754 60.978 56.9127 63.4403 51.6201 63.8657V52.1372C58.19 54.0786 60.4754 55.8415 60.4754 58.7472ZM39.525 41.2526C39.525 39.0218 43.0877 36.5595 48.3803 36.1341V47.8626C41.8103 45.9212 39.525 44.1583 39.525 41.2526Z" fill="white"></path><path d="M85.3552 14.6447C75.9117 5.20078 63.3554 0 50 0C35.622 0 22.1972 6.0498 12.7033 16.6992L13.5906 10.4883C13.717 9.60254 13.1015 8.78223 12.216 8.65566C11.33 8.53027 10.5099 9.14473 10.3834 10.0303L8.65543 22.1254C8.57613 22.6811 8.7902 23.2383 9.22105 23.5982C9.51676 23.8449 9.88512 23.9744 10.2593 23.9744C10.4308 23.9744 10.6039 23.9473 10.7714 23.8912L21.1386 20.4355C21.9875 20.1525 22.4461 19.2354 22.1632 18.3865C21.88 17.5377 20.963 17.0787 20.1142 17.3619L14.9056 19.0982C23.7962 8.98848 36.4457 3.23965 50 3.23965C62.49 3.23965 74.2326 8.10352 83.0646 16.9354C91.8964 25.7674 96.7603 37.51 96.7603 50C96.7603 62.49 91.8964 74.2326 83.0646 83.0646C74.2326 91.8965 62.4902 96.7604 50 96.7604C49.1054 96.7604 48.38 97.4855 48.38 98.3803C48.38 99.275 49.1054 100 50 100C63.3554 100 75.9117 94.7992 85.3552 85.3553C94.7988 75.9113 99.9999 63.3555 99.9999 50C99.9999 36.6445 94.7992 24.0883 85.3552 14.6447Z" fill="white"></path><path d="M43.3183 96.2865C42.7675 96.2076 42.2128 96.1184 41.6696 96.0207C40.7888 95.8619 39.947 96.4477 39.7886 97.3283C39.6302 98.2088 40.2155 99.051 41.0962 99.2094C41.6774 99.3139 42.2708 99.4096 42.8595 99.4938C42.9372 99.5049 43.0145 99.5104 43.0909 99.5104C43.8839 99.5104 44.5768 98.9274 44.6925 98.1199C44.8188 97.234 44.2038 96.4135 43.3183 96.2865Z" fill="white"></path><path d="M35.4008 94.4367C34.3811 94.1019 33.3596 93.7265 32.3645 93.321C31.5363 92.9839 30.5908 93.3814 30.2529 94.2101C29.9154 95.0386 30.3135 95.9839 31.142 96.3216C32.2066 96.7552 33.2994 97.1568 34.3904 97.515C34.5582 97.5701 34.7285 97.5962 34.8961 97.5962C35.577 97.5962 36.2107 97.1634 36.435 96.4812C36.7137 95.6308 36.2508 94.7158 35.4008 94.4367Z" fill="white"></path><path d="M4.31512 60.0176C4.08641 58.9692 3.89149 57.8988 3.73583 56.8363C3.60594 55.951 2.78407 55.3393 1.89852 55.4684C1.01317 55.5979 0.400672 56.4207 0.530554 57.3057C0.697156 58.442 0.905359 59.5867 1.15009 60.708C1.31552 61.4658 1.98622 61.983 2.73114 61.983C2.84559 61.983 2.9618 61.9709 3.07802 61.9455C3.95184 61.7547 4.50594 60.8916 4.31512 60.0176Z" fill="white"></path><path d="M2.2488 42.01C2.35661 42.0317 2.46364 42.042 2.5695 42.042C3.32516 42.042 4.00153 41.5102 4.15583 40.7409C4.36735 39.6878 4.61872 38.6288 4.9027 37.5938C5.13942 36.7311 4.632 35.8399 3.7693 35.6032C2.90739 35.3665 2.0154 35.8741 1.77868 36.737C1.47477 37.8438 1.20602 38.9764 0.979852 40.103C0.803485 40.9799 1.37165 41.834 2.2488 42.01Z" fill="white"></path><path d="M7.35495 69.2106C6.91354 68.2325 6.50104 67.2262 6.12878 66.22C5.81843 65.3809 4.8864 64.9522 4.04753 65.2627C3.20847 65.5731 2.77995 66.5049 3.0903 67.344C3.48835 68.4202 3.92956 69.4965 4.40183 70.5432C4.67233 71.1426 5.26179 71.4971 5.87937 71.4971C6.10202 71.4971 6.32839 71.4508 6.5446 71.3534C7.36022 70.9854 7.72272 70.026 7.35495 69.2106Z" fill="white"></path><path d="M1.63437 52.0223C2.52891 52.0153 3.24844 51.2842 3.24141 50.3897C3.24023 50.2594 3.23965 50.1292 3.23965 50.0001C3.23965 49.0528 3.26836 48.0952 3.3248 47.1534C3.37852 46.2602 2.69805 45.4928 1.80488 45.4393C0.910742 45.385 0.144336 46.0661 0.0908203 46.9592C0.0306641 47.9653 0 48.9883 0 50.0014C0 50.1395 0.000585937 50.2774 0.00175781 50.4153C0.00878906 51.3055 0.732617 52.0223 1.62148 52.0223C1.62539 52.0223 1.63008 52.0223 1.63437 52.0223Z" fill="white"></path><path d="M26.5617 90.471C25.634 89.9326 24.7121 89.354 23.8215 88.7513C23.0805 88.2499 22.0734 88.4439 21.5721 89.1847C21.0705 89.9257 21.2647 90.9326 22.0055 91.4341C22.9576 92.0787 23.9434 92.6972 24.9354 93.273C25.1912 93.4216 25.4707 93.4921 25.7471 93.4921C26.3057 93.4921 26.849 93.2029 27.1496 92.6851C27.5988 91.9117 27.3356 90.9203 26.5617 90.471Z" fill="white"></path><path d="M10.4146 74.9027C9.93766 74.1461 8.93746 73.9189 8.18043 74.3965C7.4236 74.8736 7.19704 75.8738 7.67418 76.6307C8.28649 77.6019 8.94039 78.5639 9.61793 79.4902C9.93512 79.9238 10.4277 80.1537 10.9265 80.1537C11.2586 80.1537 11.5933 80.0519 11.8816 79.8412C12.6037 79.3129 12.7609 78.2996 12.2326 77.5775C11.5992 76.7109 10.9875 75.8113 10.4146 74.9027Z" fill="white"></path><path d="M18.7292 84.7666C17.9309 84.0482 17.1473 83.2926 16.4003 82.5211C15.778 81.8783 14.7528 81.8617 14.1098 82.4842C13.4671 83.1064 13.4505 84.1318 14.0729 84.7746C14.8714 85.5994 15.7089 86.407 16.562 87.1748C16.8717 87.4535 17.2592 87.5906 17.6452 87.5906C18.0883 87.5906 18.5298 87.4097 18.8497 87.0545C19.4481 86.3892 19.394 85.365 18.7292 84.7666Z" fill="white"></path><path d="M4.92095 32.325C5.13032 32.4152 5.3481 32.4582 5.56235 32.4582C6.18911 32.4582 6.78618 32.0922 7.05024 31.4803C7.26977 30.9721 7.50142 30.4606 7.73931 29.9602C8.1231 29.152 7.77935 28.1859 6.97134 27.8018C6.16294 27.418 5.19673 27.7621 4.81294 28.5697C4.55864 29.1049 4.31079 29.6518 4.07602 30.1955C3.72134 31.0168 4.09966 31.9701 4.92095 32.325Z" fill="white"></path><defs><radialGradient id="paint0_radial" cx="0" cy="0" r="1" gradientUnits="userSpaceOnUse" gradientTransform="translate(17.1709 82.8292) rotate(-45) scale(92.8553)"><stop stop-color="#B3AD00"></stop><stop offset="0.479167" stop-color="#FBBE3A"></stop><stop offset="0.885417" stop-color="#FB38FA"></stop><stop offset="0.9999" stop-color="#6D41FF"></stop><stop offset="1" stop-color="#18EEEC"></stop></radialGradient></defs></svg> 