<svg width="30" height="30" viewBox="0 0 30 30" fill="none" xmlns="http://www.w3.org/2000/svg">
<path d="M27 0H3C1.35 0 0 1.35 0 3V27C0 28.65 1.35 30 3 30H27C28.65 30 30 28.65 30 27V3C30 1.35 28.65 0 27 0ZM15 9C18.3 9 21 11.7 21 15C21 18.3 18.3 21 15 21C11.7 21 9 18.3 9 15C9 11.7 11.7 9 15 9ZM3.75 27C3.3 27 3 26.7 3 26.25V13.5H6.15C6 13.95 6 14.55 6 15C6 19.95 10.05 24 15 24C19.95 24 24 19.95 24 15C24 14.55 24 13.95 23.85 13.5H27V26.25C27 26.7 26.7 27 26.25 27H3.75ZM27 6.75C27 7.2 26.7 7.5 26.25 7.5H23.25C22.8 7.5 22.5 7.2 22.5 6.75V3.75C22.5 3.3 22.8 3 23.25 3H26.25C26.7 3 27 3.3 27 3.75V6.75Z" fill="white"/>
</svg>
