<svg width="31" height="30" viewBox="0 0 31 30" fill="none" xmlns="http://www.w3.org/2000/svg">
<rect x="2.04932" y="2" width="25.9574" height="27" fill="white"/>
<path d="M27.0081 0H3.04734C1.40004 0 0.0522461 1.35 0.0522461 3V27C0.0522461 28.65 1.40004 30 3.04734 30H27.0081C28.6554 30 30.0031 28.65 30.0031 27V3C30.0031 1.35 28.6554 0 27.0081 0ZM15.0277 9C18.3223 9 21.0179 11.7 21.0179 15C21.0179 18.3 18.3223 21 15.0277 21C11.7331 21 9.03752 18.3 9.03752 15C9.03752 11.7 11.7331 9 15.0277 9ZM3.79611 27C3.34685 27 3.04734 26.7 3.04734 26.25V13.5H6.19218C6.04243 13.95 6.04243 14.55 6.04243 15C6.04243 19.95 10.0858 24 15.0277 24C19.9696 24 24.013 19.95 24.013 15C24.013 14.55 24.013 13.95 23.8632 13.5H27.0081V26.25C27.0081 26.7 26.7085 27 26.2593 27H3.79611ZM27.0081 6.75C27.0081 7.2 26.7085 7.5 26.2593 7.5H23.2642C22.8149 7.5 22.5154 7.2 22.5154 6.75V3.75C22.5154 3.3 22.8149 3 23.2642 3H26.2593C26.7085 3 27.0081 3.3 27.0081 3.75V6.75Z" fill="url(#paint0_linear)"/>
<defs>
<linearGradient id="paint0_linear" x1="0.0522461" y1="30" x2="30.0522" y2="0.0491391" gradientUnits="userSpaceOnUse">
<stop stop-color="#FC9130"/>
<stop offset="0.515625" stop-color="#CB215A"/>
<stop offset="1" stop-color="#A00FD2"/>
</linearGradient>
</defs>
</svg>
