<?xml version="1.0" encoding="UTF-8" standalone="no"?>
<svg
   xmlns:dc="http://purl.org/dc/elements/1.1/"
   xmlns:cc="http://creativecommons.org/ns#"
   xmlns:rdf="http://www.w3.org/1999/02/22-rdf-syntax-ns#"
   xmlns:svg="http://www.w3.org/2000/svg"
   xmlns="http://www.w3.org/2000/svg"
   xmlns:xlink="http://www.w3.org/1999/xlink"
   xmlns:sodipodi="../../../../../../sodipodi.sourceforge.net/DTD/sodipodi-0.html"
   xmlns:inkscape="http://www.inkscape.org/namespaces/inkscape"
   inkscape:version="1.0 (6e3e5246a0, 2020-05-07)"
   sodipodi:docname="ramka_all.svg"
   id="svg172"
   version="1.1"
   fill="none"
   viewBox="0 0 586.2138 113.15648"
   height="113.15648"
   width="586.21381">
  <metadata
     id="metadata176">
    <rdf:RDF>
      <cc:Work
         rdf:about="">
        <dc:format>image/svg+xml</dc:format>
        <dc:type
           rdf:resource="http://purl.org/dc/dcmitype/StillImage" />
        <dc:title></dc:title>
      </cc:Work>
    </rdf:RDF>
  </metadata>
  <sodipodi:namedview
     fit-margin-bottom="3.6"
     fit-margin-right="3.6"
     units="px"
     fit-margin-left="3.6"
     fit-margin-top="3.6"
     lock-margins="false"
     inkscape:current-layer="g430"
     inkscape:window-maximized="1"
     inkscape:window-y="0"
     inkscape:window-x="0"
     inkscape:cy="78.14916"
     inkscape:cx="155.66703"
     inkscape:zoom="1.734486"
     showgrid="false"
     id="namedview174"
     inkscape:window-height="1052"
     inkscape:window-width="1920"
     inkscape:pageshadow="2"
     inkscape:pageopacity="0"
     guidetolerance="10"
     gridtolerance="10"
     objecttolerance="10"
     borderopacity="1"
     bordercolor="#666666"
     pagecolor="#ffffff" />
  <defs
     id="defs170">
    <radialGradient
       gradientTransform="matrix(-582.01376,-98.00147,32.093191,-190.5959,583.951,100)"
       gradientUnits="userSpaceOnUse"
       r="1"
       cy="0"
       cx="0"
       id="paint0_radial">
      <stop
         id="stop161"
         stop-color="#FBBE3A" />
      <stop
         id="stop163"
         stop-color="#FB38FA"
         offset="0.350699" />
      <stop
         id="stop165"
         stop-color="#6D41FF"
         offset="0.663889" />
      <stop
         id="stop167"
         stop-color="#18EEEC"
         offset="1" />
    </radialGradient>
    <radialGradient
       id="paint0_radial-6"
       cx="0"
       cy="0"
       r="1"
       gradientUnits="userSpaceOnUse"
       gradientTransform="matrix(-582.01376,-98.00147,32.093191,-190.5959,581.10462,97.016423)">
      <stop
         stop-color="#FBBE3A"
         id="stop161-7" />
      <stop
         offset="0.350699"
         stop-color="#FB38FA"
         id="stop163-5" />
      <stop
         offset="0.663889"
         stop-color="#6D41FF"
         id="stop165-3" />
      <stop
         offset="1"
         stop-color="#18EEEC"
         id="stop167-5" />
    </radialGradient>
    <radialGradient
       id="paint0_radial-2"
       cx="0"
       cy="0"
       r="1"
       gradientUnits="userSpaceOnUse"
       gradientTransform="matrix(145.50394,-39.000183,19.505425,72.771866,85.331299,18.724945)">
      <stop
         stop-color="#FBBE3A"
         id="stop132" />
      <stop
         offset="0.350699"
         stop-color="#FB38FA"
         id="stop134" />
      <stop
         offset="0.663889"
         stop-color="#6D41FF"
         id="stop136" />
      <stop
         offset="1"
         stop-color="#18EEEC"
         id="stop138" />
    </radialGradient>
    <radialGradient
       r="1"
       cy="0"
       cx="0"
       gradientTransform="matrix(-582.01376,-98.00147,32.093191,-190.5959,581.10462,97.016423)"
       gradientUnits="userSpaceOnUse"
       id="radialGradient432"
       xlink:href="#paint0_radial"
       inkscape:collect="always" />
  </defs>
  <g
     transform="translate(3.16278,14.056478)"
     id="g430">
    <path
       style="stroke:url(#radialGradient432)"
       d="m 241.42962,-0.98357694 h 331.675 c 4.418,0 8,3.58172004 8,8.00000004 V 89.016423 c 0,4.4183 -3.582,8 -8,8 H 7.0908369 c -4.41828,0 -7.99999999,-3.5817 -7.99999999,-8 V 7.0164231 c 0,-4.41828 3.58171999,-8.00000004 7.99999999,-8.00000004 H 73.334917"
       stroke="url(#paint0_radial)"
       stroke-width="3"
       stroke-linecap="round"
       id="path159" />
    <path
       id="path149"
       fill-opacity="0.5"
       fill="#000000"
       d="M 581.45794,90.361986 V 8.3619891 c 0,-4.4182804 -3.581,-8.00000044 -8,-8.00000044 H 507.21394 7.4444399 c -4.4182801,0 -7.99999909,3.58172004 -7.99999909,8.00000044 V 90.361986 c 0,4.4183 3.58171899,7.999997 7.99999909,7.999997 H 573.45794 c 4.419,0 8,-3.581697 8,-7.999997 z" />
    <path
       id="path159-6"
       stroke-linecap="round"
       stroke-width="3"
       stroke="url(#paint0_radial)"
       d="m 241.42962,-0.98357694 h 331.675 c 4.418,0 8,3.58172004 8,8.00000004 V 89.016423 c 0,4.4183 -3.582,8 -8,8 H 7.0908369 c -4.41828,0 -7.99999999,-3.5817 -7.99999999,-8 V 7.0164231 c 0,-4.41828 3.58171999,-8.00000004 7.99999999,-8.00000004 H 73.334917"
       style="stroke:url(#paint0_radial-6)" />
    <path
       style="fill:url(#paint0_radial-2)"
       id="path130"
       fill="url(#paint0_radial)"
       d="m 100.98712,4.6549455 c 0,2.4499996 -0.6067,4.2466996 -1.820003,5.3899995 -1.2133,1.12 -2.870008,1.68 -4.970008,1.68 h -6.895 v -24.92 h 6.72 c 2.28667,0 3.966708,0.56 5.040008,1.68 1.096703,1.09667 1.645003,2.8116705 1.645003,5.1450005 v 0.49 c 0,1.28333 -0.2567,2.3332999 -0.770003,3.1499999 -0.5133,0.7933001 -1.1317,1.3533001 -1.855,1.6800001 0.77,0.27999996 1.4467,0.85169996 2.030003,1.71499996 0.5833,0.84000004 0.875,2.00670004 0.875,3.50000004 z m -4.865011,-10.675 c 0,-1.02667 -0.18666,-1.785 -0.56,-2.275 -0.37333,-0.49 -1.00333,-0.735 -1.89,-0.735 h -1.78501 v 5.9849999 h 1.85501 c 0.88667,0 1.505,-0.245 1.85501,-0.735 0.34999,-0.5133299 0.52499,-1.2599999 0.52499,-2.2399999 z m -0.27999,12.775 c 0.37333,-0.5367 0.56,-1.3533 0.56,-2.45 0,-1.0967 -0.18667,-1.9017 -0.56,-2.415 -0.35001,-0.5367 -1.00334,-0.805 -1.96001,-0.805 h -1.99501 v 6.4749996 h 1.99501 c 0.95667,0 1.61,-0.2683 1.96001,-0.8049996 z m 26.705801,4.9699995 h -4.62 V -8.9600545 h -4.2 V 11.724945 h -4.585 v -24.92 h 13.405 z m 16.2589,-7.4199995 c 0,5.1099996 -2.24,7.6649995 -6.72,7.6649995 -4.48,0 -6.72,-2.5549999 -6.72,-7.6649995 v -10.08 c 0,-5.1100005 2.24,-7.6650005 6.72,-7.6650005 4.48,0 6.72,2.555 6.72,7.6650005 z m -4.585,-0.14 v -9.835 c 0,-1.37667 -0.1867,-2.31 -0.56,-2.8 -0.35,-0.49 -0.875,-0.735 -1.575,-0.735 -0.7,0 -1.225,0.245 -1.575,0.735 -0.35,0.49 -0.525,1.42333 -0.525,2.8 v 9.835 c 0,1.3767 0.175,2.3217 0.525,2.835 0.3733,0.4899996 0.8983,0.7349996 1.575,0.7349996 0.7,0 1.225,-0.245 1.575,-0.7349996 0.3733,-0.5133 0.56,-1.4583 0.56,-2.835 z m 23.0442,12.5999995 h -4.165 v -5.04 h -9.1 v 5.04 h -4.165 V 7.5249451 h 1.4 c 0.7933,-2.2399996 1.33,-4.5849996 1.61,-7.03499964 0.28,-2.47329996 0.42,-5.94999996 0.42,-10.42999996 v -3.2550005 h 12.145 V 7.5249451 h 1.855 z m -6.405,-9.2399999 V -8.9600545 h -3.15 v 2.8 c 0,3.4066999 -0.14,6.04329996 -0.42,7.91 -0.28,1.8433 -0.77,3.7683 -1.47,5.7749996 z m 22.5302,4.1999999 h -4.55 l -0.84,-4.0249999 h -5.005 l -0.805,4.0249999 h -4.515 l 5.775,-24.92 h 4.06 z m -6.16,-7.8049995 -1.295,-6.1950001 -0.49,-2.7299999 -0.455,2.7299999 c -0.8167,4.1300001 -1.2367,6.1950001 -1.26,6.1950001 z m 21.52659,-8.89 c 0,4.87669996 -2.22809,7.315 -6.68469,7.315 h -2.31 v 9.3799995 h -4.585 v -24.92 h 6.895 c 4.4566,0 6.68469,2.45 6.68469,7.3500005 z m -4.58469,-0.21 v -0.455 c 0,-1.21333 -0.1984,-2.07667 -0.595,-2.59 -0.3734,-0.53667 -1.0267,-0.805 -1.96,-0.805 h -1.855 v 7.21 h 1.855 c 0.9333,0 1.5866,-0.2450001 1.96,-0.7350001 0.3966,-0.5133 0.595,-1.3883 0.595,-2.6249999 z m 20.01969,9.485 c 0,5.1099996 -2.24,7.6649995 -6.72,7.6649995 -4.48,0 -6.72,-2.5549999 -6.72,-7.6649995 v -10.08 c 0,-5.1100005 2.24,-7.6650005 6.72,-7.6650005 4.48,0 6.72,2.555 6.72,7.6650005 z m -4.585,-0.14 v -9.835 c 0,-1.37667 -0.187,-2.31 -0.56,-2.8 -0.35,-0.49 -0.875,-0.735 -1.575,-0.735 -0.7,0 -1.225,0.245 -1.575,0.735 -0.35,0.49 -0.525,1.42333 -0.525,2.8 v 9.835 c 0,1.3767 0.175,2.3217 0.525,2.835 0.373,0.4899996 0.898,0.7349996 1.575,0.7349996 0.7,0 1.225,-0.245 1.575,-0.7349996 0.373,-0.5133 0.56,-1.4583 0.56,-2.835 z m 22.089,7.5599995 h -4.83 l -3.815,-10.3249995 -1.365,2.52 v 7.8049995 h -4.585 v -24.92 h 4.585 v 9.6950004 l 4.795,-9.6950004 h 4.76 l -5.075,9.5550004 z m 7.24,-24.92 -1.015,17.2550005 h -3.325 l -1.015,-17.2550005 z m 0.07,22.3650001 c 0,0.7933 -0.269,1.4582999 -0.805,1.9949999 -0.537,0.5367 -1.19,0.805 -1.96,0.805 -0.747,0 -1.389,-0.2683 -1.925,-0.805 -0.537,-0.5367 -0.805,-1.1782999 -0.805,-1.9249999 0,-0.7467 0.268,-1.3883 0.805,-1.925 0.536,-0.5599996 1.178,-0.8399996 1.925,-0.8399996 0.746,0 1.388,0.2683 1.925,0.8049996 0.56,0.5367 0.84,1.1667 0.84,1.89 z" />
  </g>
</svg>
